<svg width="512" height="512" viewBox="0 0 48 48" fill="none" xmlns="http://www.w3.org/2000/svg">
<rect width="48" height="48" rx="8" fill="url(#paint0_radial_397_2429)"/>
<path d="M24 24C24.7364 24 25.3334 23.403 25.3334 22.6667C25.3334 21.9303 24.7364 21.3333 24 21.3333C23.2636 21.3333 22.6667 21.9303 22.6667 22.6667C22.6667 23.403 23.2636 24 24 24Z" stroke="#E1F5FA" stroke-width="2.66667" stroke-linecap="round" stroke-linejoin="round"/>
<path d="M30.7067 32.6133C32.8399 31.1746 34.4542 29.0883 35.3114 26.6622C36.1686 24.2361 36.2232 21.5987 35.4673 19.1392C34.7114 16.6797 33.1849 14.5283 31.1131 13.0024C29.0413 11.4765 26.534 10.6569 23.9609 10.6646C21.3878 10.6723 18.8854 11.5069 16.8228 13.0451C14.7602 14.5834 13.2466 16.7439 12.5054 19.2079C11.7643 21.672 11.8347 24.3089 12.7064 26.7299C13.5781 29.1508 15.2049 31.2274 17.3467 32.6533" stroke="#E1F5FA" stroke-width="2.66667" stroke-linecap="round" stroke-linejoin="round"/>
<path d="M29.4133 26.5467C30.1372 25.5391 30.5656 24.3495 30.6502 23.1117C30.7348 21.8739 30.4724 20.6371 29.8923 19.5403C29.3123 18.4436 28.4378 17.5304 27.3671 16.9036C26.2964 16.2768 25.0721 15.9613 23.8318 15.9924C22.5915 16.0235 21.3845 16.4001 20.3466 17.0798C19.3087 17.7595 18.4811 18.7154 17.9568 19.8398C17.4326 20.9643 17.2325 22.2127 17.3791 23.4447C17.5257 24.6767 18.0132 25.8433 18.7867 26.8133" stroke="#E1F5FA" stroke-width="2.66667" stroke-linecap="round" stroke-linejoin="round"/>
<path d="M22.8134 30.6667C22.7877 30.4959 22.7992 30.3216 22.847 30.1557C22.8949 29.9898 22.978 29.8362 23.0906 29.7054C23.2033 29.5745 23.3428 29.4695 23.4998 29.3975C23.6567 29.3255 23.8274 29.2883 24 29.2883C24.1727 29.2883 24.3433 29.3255 24.5003 29.3975C24.6572 29.4695 24.7968 29.5745 24.9094 29.7054C25.0221 29.8362 25.1052 29.9898 25.153 30.1557C25.2009 30.3216 25.2124 30.4959 25.1867 30.6667L24.4934 36.8933C24.4934 37.0242 24.4414 37.1497 24.3489 37.2422C24.2563 37.3347 24.1309 37.3867 24 37.3867C23.8692 37.3867 23.7437 37.3347 23.6512 37.2422C23.5587 37.1497 23.5067 37.0242 23.5067 36.8933L22.8134 30.6533V30.6667Z" stroke="#E1F5FA" stroke-width="2.66667" stroke-linecap="round" stroke-linejoin="round"/>
<defs>
<radialGradient id="paint0_radial_397_2429" cx="0" cy="0" r="1" gradientUnits="userSpaceOnUse" gradientTransform="translate(24 24) rotate(90) scale(24)">
<stop stop-color="#5490EB"/>
<stop offset="1" stop-color="#0848A9"/>
</radialGradient>
</defs>
</svg>
