<svg width="396" height="82" viewBox="0 0 396 82" fill="none" xmlns="http://www.w3.org/2000/svg">
<g clip-path="url(#clip0_112_2373)">
<g filter="url(#filter0_dd_112_2373)">
<rect y="16" width="48" height="48" rx="8" fill="url(#paint0_radial_112_2373)"/>
<path d="M23.9998 39.9999C24.7362 39.9999 25.3332 39.403 25.3332 38.6666C25.3332 37.9302 24.7362 37.3333 23.9998 37.3333C23.2635 37.3333 22.6665 37.9302 22.6665 38.6666C22.6665 39.403 23.2635 39.9999 23.9998 39.9999Z" stroke="#E1F5FA" stroke-width="2.66667" stroke-linecap="round" stroke-linejoin="round"/>
<path d="M30.7067 48.6133C32.8399 47.1746 34.4542 45.0883 35.3114 42.6622C36.1686 40.2361 36.2232 37.5987 35.4673 35.1392C34.7114 32.6797 33.1849 30.5282 31.1131 29.0023C29.0413 27.4765 26.534 26.6569 23.9609 26.6646C21.3878 26.6723 18.8854 27.5069 16.8228 29.0451C14.7602 30.5834 13.2466 32.7439 12.5054 35.2079C11.7643 37.6719 11.8347 40.3089 12.7064 42.7298C13.5781 45.1508 15.2049 47.2274 17.3467 48.6533" stroke="#E1F5FA" stroke-width="2.66667" stroke-linecap="round" stroke-linejoin="round"/>
<path d="M29.4132 42.5466C30.1371 41.539 30.5655 40.3494 30.6501 39.1116C30.7347 37.8739 30.4723 36.637 29.8923 35.5403C29.3123 34.4435 28.4377 33.5304 27.367 32.9036C26.2963 32.2768 25.072 31.9612 23.8317 31.9923C22.5914 32.0235 21.3844 32.4001 20.3465 33.0798C19.3086 33.7595 18.481 34.7153 17.9567 35.8398C17.4325 36.9643 17.2324 38.2127 17.379 39.4447C17.5256 40.6766 18.0131 41.8433 18.7866 42.8133" stroke="#E1F5FA" stroke-width="2.66667" stroke-linecap="round" stroke-linejoin="round"/>
<path d="M22.8131 46.6667C22.7875 46.496 22.799 46.3217 22.8468 46.1558C22.8947 45.9899 22.9777 45.8363 23.0904 45.7054C23.203 45.5746 23.3426 45.4696 23.4996 45.3976C23.6565 45.3256 23.8271 45.2883 23.9998 45.2883C24.1725 45.2883 24.3431 45.3256 24.5001 45.3976C24.657 45.4696 24.7966 45.5746 24.9092 45.7054C25.0219 45.8363 25.105 45.9899 25.1528 46.1558C25.2007 46.3217 25.2121 46.496 25.1865 46.6667L24.4931 52.8934C24.4931 53.0242 24.4412 53.1497 24.3486 53.2422C24.2561 53.3347 24.1306 53.3867 23.9998 53.3867C23.869 53.3867 23.7435 53.3347 23.651 53.2422C23.5584 53.1497 23.5065 53.0242 23.5065 52.8934L22.8131 46.6534V46.6667Z" stroke="#E1F5FA" stroke-width="2.66667" stroke-linecap="round" stroke-linejoin="round"/>
</g>
<path d="M67.594 30.058C67.594 29.1047 67.77 28.1733 68.122 27.264C68.474 26.34 68.9873 25.504 69.662 24.756C70.3367 24.008 71.158 23.414 72.126 22.974C73.094 22.5193 74.194 22.292 75.426 22.292C76.8927 22.292 78.1613 22.6073 79.232 23.238C80.3173 23.8687 81.124 24.69 81.652 25.702L78.88 27.638C78.6453 27.0807 78.33 26.648 77.934 26.34C77.5527 26.032 77.1273 25.8193 76.658 25.702C76.2033 25.57 75.7633 25.504 75.338 25.504C74.6487 25.504 74.0473 25.6433 73.534 25.922C73.0207 26.186 72.5953 26.5453 72.258 27C71.9207 27.4547 71.6713 27.9607 71.51 28.518C71.3487 29.0753 71.268 29.6327 71.268 30.19C71.268 30.806 71.3633 31.4 71.554 31.972C71.7447 32.544 72.016 33.05 72.368 33.49C72.7347 33.93 73.1747 34.282 73.688 34.546C74.2013 34.7953 74.766 34.92 75.382 34.92C75.822 34.92 76.2693 34.8467 76.724 34.7C77.1787 34.5533 77.5967 34.326 77.978 34.018C78.374 33.6953 78.6747 33.2773 78.88 32.764L81.828 34.502C81.52 35.2647 81.014 35.9173 80.31 36.46C79.606 37.0027 78.8067 37.4207 77.912 37.714C77.032 37.9927 76.1593 38.132 75.294 38.132C74.1647 38.132 73.1233 37.9047 72.17 37.45C71.2313 36.9807 70.4173 36.3647 69.728 35.602C69.0533 34.8247 68.5253 33.9593 68.144 33.006C67.7773 32.038 67.594 31.0553 67.594 30.058ZM82.6305 34.546C82.6305 33.7833 82.8432 33.116 83.2685 32.544C83.6938 31.972 84.2805 31.5247 85.0285 31.202C85.7765 30.8647 86.6345 30.696 87.6025 30.696C88.0718 30.696 88.5338 30.74 88.9885 30.828C89.4432 30.9013 89.8392 31.0113 90.1765 31.158V30.652C90.1765 30.0213 89.9858 29.5373 89.6045 29.2C89.2232 28.8627 88.6438 28.694 87.8665 28.694C87.2212 28.694 86.6125 28.804 86.0405 29.024C85.4832 29.244 84.8892 29.5593 84.2585 29.97L83.2025 27.726C83.9652 27.2273 84.7572 26.8533 85.5785 26.604C86.4145 26.3547 87.2945 26.23 88.2185 26.23C89.9492 26.23 91.2912 26.648 92.2445 27.484C93.2125 28.3053 93.6965 29.5007 93.6965 31.07V34.084C93.6965 34.436 93.7478 34.6853 93.8505 34.832C93.9678 34.964 94.1658 35.0447 94.4445 35.074V38C94.1512 38.0587 93.8725 38.1027 93.6085 38.132C93.3592 38.1613 93.1392 38.176 92.9485 38.176C92.2885 38.176 91.7825 38.044 91.4305 37.78C91.0932 37.516 90.8805 37.1567 90.7925 36.702L90.7265 36.196C90.2132 36.856 89.5972 37.362 88.8785 37.714C88.1745 38.0513 87.4338 38.22 86.6565 38.22C85.8938 38.22 85.2045 38.0587 84.5885 37.736C83.9872 37.4133 83.5105 36.9733 83.1585 36.416C82.8065 35.8587 82.6305 35.2353 82.6305 34.546ZM89.6265 34.986C89.7878 34.854 89.9198 34.7073 90.0225 34.546C90.1252 34.3847 90.1765 34.2307 90.1765 34.084V33.05C89.8832 32.9327 89.5532 32.8447 89.1865 32.786C88.8345 32.7127 88.5045 32.676 88.1965 32.676C87.5512 32.676 87.0158 32.8227 86.5905 33.116C86.1652 33.3947 85.9525 33.7687 85.9525 34.238C85.9525 34.502 86.0258 34.744 86.1725 34.964C86.3192 35.184 86.5172 35.36 86.7665 35.492C87.0305 35.624 87.3385 35.69 87.6905 35.69C88.0425 35.69 88.3945 35.624 88.7465 35.492C89.0985 35.36 89.3918 35.1913 89.6265 34.986ZM100.669 38.22C99.6864 38.22 98.7258 38.0587 97.7871 37.736C96.8484 37.4133 96.0564 36.9367 95.4111 36.306L96.6211 34.084C97.3251 34.5973 98.0071 34.986 98.6671 35.25C99.3418 35.514 99.9724 35.646 100.559 35.646C101.014 35.646 101.366 35.5727 101.615 35.426C101.864 35.2793 101.989 35.052 101.989 34.744C101.989 34.524 101.916 34.3553 101.769 34.238C101.622 34.106 101.395 33.9887 101.087 33.886C100.794 33.7833 100.427 33.6733 99.9871 33.556C99.1071 33.2627 98.3738 32.9767 97.7871 32.698C97.2004 32.4193 96.7604 32.082 96.4671 31.686C96.1738 31.2753 96.0271 30.7473 96.0271 30.102C96.0271 29.3247 96.2178 28.65 96.5991 28.078C96.9951 27.4913 97.5524 27.0367 98.2711 26.714C98.9898 26.3913 99.8478 26.23 100.845 26.23C101.637 26.23 102.407 26.3547 103.155 26.604C103.918 26.8533 104.629 27.2713 105.289 27.858L103.925 30.058C103.265 29.6033 102.678 29.2733 102.165 29.068C101.652 28.8627 101.153 28.76 100.669 28.76C100.42 28.76 100.192 28.7893 99.9871 28.848C99.7818 28.9067 99.6131 29.0093 99.4811 29.156C99.3638 29.288 99.3051 29.464 99.3051 29.684C99.3051 29.904 99.3638 30.08 99.4811 30.212C99.6131 30.344 99.8111 30.4613 100.075 30.564C100.354 30.652 100.698 30.762 101.109 30.894C102.062 31.1727 102.854 31.4587 103.485 31.752C104.116 32.0307 104.585 32.3827 104.893 32.808C105.216 33.2187 105.377 33.7687 105.377 34.458C105.377 35.6313 104.952 36.5553 104.101 37.23C103.265 37.89 102.121 38.22 100.669 38.22ZM114.577 37.384C114.254 37.516 113.895 37.648 113.499 37.78C113.117 37.912 112.714 38.0147 112.289 38.088C111.863 38.176 111.445 38.22 111.035 38.22C110.448 38.22 109.905 38.1247 109.407 37.934C108.923 37.7287 108.534 37.3987 108.241 36.944C107.962 36.4893 107.823 35.888 107.823 35.14V29.112H106.349V26.45H107.823V22.776H111.343V26.45H113.697V29.112H111.343V33.93C111.343 34.3113 111.438 34.59 111.629 34.766C111.819 34.9273 112.061 35.008 112.355 35.008C112.604 35.008 112.868 34.964 113.147 34.876C113.44 34.788 113.689 34.6927 113.895 34.59L114.577 37.384Z" fill="#1E293B"/>
<path d="M74.552 55.744L72.752 51.08C72.6987 50.9413 72.6427 50.7813 72.584 50.6C72.5253 50.4133 72.4693 50.216 72.416 50.008C72.304 50.44 72.1893 50.8 72.072 51.088L70.272 55.744H74.552ZM77.784 60H76.584C76.4453 60 76.3333 59.9653 76.248 59.896C76.1627 59.8267 76.0987 59.7387 76.056 59.632L74.984 56.864H69.84L68.768 59.632C68.736 59.728 68.6747 59.8133 68.584 59.888C68.4933 59.9627 68.3813 60 68.248 60H67.048L71.632 48.536H73.2L77.784 60ZM83.9506 58.048C84.212 58.4 84.4973 58.648 84.8066 58.792C85.116 58.936 85.4626 59.008 85.8466 59.008C86.604 59.008 87.1853 58.7387 87.5906 58.2C87.996 57.6613 88.1986 56.8933 88.1986 55.896C88.1986 55.368 88.1506 54.9147 88.0546 54.536C87.964 54.1573 87.8306 53.848 87.6546 53.608C87.4786 53.3627 87.2626 53.184 87.0066 53.072C86.7506 52.96 86.46 52.904 86.1346 52.904C85.6706 52.904 85.2626 53.0107 84.9106 53.224C84.564 53.4373 84.244 53.7387 83.9506 54.128V58.048ZM83.8786 53.152C84.22 52.7307 84.6146 52.392 85.0626 52.136C85.5106 51.88 86.0226 51.752 86.5986 51.752C87.068 51.752 87.492 51.8427 87.8706 52.024C88.2493 52.2 88.572 52.464 88.8386 52.816C89.1053 53.1627 89.3106 53.5947 89.4546 54.112C89.5986 54.6293 89.6706 55.224 89.6706 55.896C89.6706 56.4933 89.5906 57.0507 89.4306 57.568C89.2706 58.08 89.0386 58.5253 88.7346 58.904C88.436 59.2773 88.068 59.5733 87.6306 59.792C87.1986 60.0053 86.7106 60.112 86.1666 60.112C85.6706 60.112 85.244 60.0293 84.8866 59.864C84.5346 59.6933 84.2226 59.4587 83.9506 59.16V62.744H82.5186V51.896H83.3746C83.5773 51.896 83.7026 51.9947 83.7506 52.192L83.8786 53.152ZM94.9034 51.768C95.4954 51.768 96.0287 51.8667 96.5034 52.064C96.978 52.2613 97.3834 52.5413 97.7194 52.904C98.0554 53.2667 98.3114 53.7067 98.4874 54.224C98.6687 54.736 98.7594 55.3093 98.7594 55.944C98.7594 56.584 98.6687 57.16 98.4874 57.672C98.3114 58.184 98.0554 58.6213 97.7194 58.984C97.3834 59.3467 96.978 59.6267 96.5034 59.824C96.0287 60.016 95.4954 60.112 94.9034 60.112C94.306 60.112 93.7674 60.016 93.2874 59.824C92.8127 59.6267 92.4074 59.3467 92.0714 58.984C91.7354 58.6213 91.4767 58.184 91.2954 57.672C91.1194 57.16 91.0314 56.584 91.0314 55.944C91.0314 55.3093 91.1194 54.736 91.2954 54.224C91.4767 53.7067 91.7354 53.2667 92.0714 52.904C92.4074 52.5413 92.8127 52.2613 93.2874 52.064C93.7674 51.8667 94.306 51.768 94.9034 51.768ZM94.9034 59C95.7034 59 96.3007 58.7333 96.6954 58.2C97.09 57.6613 97.2874 56.912 97.2874 55.952C97.2874 54.9867 97.09 54.2347 96.6954 53.696C96.3007 53.1573 95.7034 52.888 94.9034 52.888C94.498 52.888 94.1434 52.9573 93.8394 53.096C93.5407 53.2347 93.29 53.4347 93.0874 53.696C92.89 53.9573 92.7407 54.28 92.6394 54.664C92.5434 55.0427 92.4954 55.472 92.4954 55.952C92.4954 56.912 92.6927 57.6613 93.0874 58.2C93.4874 58.7333 94.0927 59 94.9034 59ZM105.846 53.824C105.579 53.4667 105.291 53.2187 104.982 53.08C104.672 52.936 104.326 52.864 103.942 52.864C103.19 52.864 102.611 53.1333 102.206 53.672C101.8 54.2107 101.598 54.9787 101.598 55.976C101.598 56.504 101.643 56.9573 101.734 57.336C101.824 57.7093 101.958 58.0187 102.134 58.264C102.31 58.504 102.526 58.68 102.782 58.792C103.038 58.904 103.328 58.96 103.654 58.96C104.123 58.96 104.531 58.8533 104.878 58.64C105.23 58.4267 105.552 58.1253 105.846 57.736V53.824ZM107.27 48.216V60H106.422C106.219 60 106.091 59.9013 106.038 59.704L105.91 58.72C105.563 59.136 105.168 59.472 104.726 59.728C104.283 59.984 103.771 60.112 103.19 60.112C102.726 60.112 102.304 60.024 101.926 59.848C101.547 59.6667 101.224 59.4027 100.958 59.056C100.691 58.7093 100.486 58.2773 100.342 57.76C100.198 57.2427 100.126 56.648 100.126 55.976C100.126 55.3787 100.206 54.824 100.366 54.312C100.526 53.7947 100.755 53.3467 101.054 52.968C101.352 52.5893 101.718 52.2933 102.15 52.08C102.587 51.8613 103.078 51.752 103.622 51.752C104.118 51.752 104.542 51.8373 104.894 52.008C105.251 52.1733 105.568 52.4053 105.846 52.704V48.216H107.27ZM115.159 53.336C115.116 53.3947 115.073 53.44 115.031 53.472C114.988 53.504 114.929 53.52 114.855 53.52C114.775 53.52 114.687 53.488 114.591 53.424C114.495 53.3547 114.375 53.28 114.231 53.2C114.092 53.12 113.919 53.048 113.711 52.984C113.508 52.9147 113.257 52.88 112.959 52.88C112.559 52.88 112.207 52.952 111.903 53.096C111.599 53.2347 111.343 53.4373 111.135 53.704C110.932 53.9707 110.777 54.2933 110.671 54.672C110.569 55.0507 110.519 55.4747 110.519 55.944C110.519 56.4347 110.575 56.872 110.687 57.256C110.799 57.6347 110.956 57.9547 111.159 58.216C111.367 58.472 111.615 58.6693 111.903 58.808C112.196 58.9413 112.524 59.008 112.887 59.008C113.233 59.008 113.519 58.968 113.743 58.888C113.967 58.8027 114.151 58.7093 114.295 58.608C114.444 58.5067 114.567 58.416 114.663 58.336C114.764 58.2507 114.863 58.208 114.959 58.208C115.076 58.208 115.167 58.2533 115.231 58.344L115.631 58.864C115.455 59.0827 115.255 59.2693 115.031 59.424C114.807 59.5787 114.564 59.7093 114.303 59.816C114.047 59.9173 113.777 59.992 113.495 60.04C113.212 60.088 112.924 60.112 112.631 60.112C112.124 60.112 111.652 60.0187 111.215 59.832C110.783 59.6453 110.407 59.376 110.087 59.024C109.767 58.6667 109.516 58.2293 109.335 57.712C109.153 57.1947 109.063 56.6053 109.063 55.944C109.063 55.3413 109.145 54.784 109.311 54.272C109.481 53.76 109.727 53.32 110.047 52.952C110.372 52.5787 110.769 52.288 111.239 52.08C111.713 51.872 112.257 51.768 112.871 51.768C113.441 51.768 113.943 51.8613 114.375 52.048C114.812 52.2293 115.199 52.488 115.535 52.824L115.159 53.336ZM121.551 56.352C120.895 56.3733 120.335 56.4267 119.871 56.512C119.413 56.592 119.037 56.6987 118.743 56.832C118.455 56.9653 118.245 57.1227 118.111 57.304C117.983 57.4853 117.919 57.688 117.919 57.912C117.919 58.1253 117.954 58.3093 118.023 58.464C118.093 58.6187 118.186 58.7467 118.303 58.848C118.426 58.944 118.567 59.016 118.727 59.064C118.893 59.1067 119.069 59.128 119.255 59.128C119.506 59.128 119.735 59.104 119.943 59.056C120.151 59.0027 120.346 58.928 120.527 58.832C120.714 58.736 120.89 58.6213 121.055 58.488C121.226 58.3547 121.391 58.2027 121.551 58.032V56.352ZM116.951 53.04C117.399 52.608 117.882 52.2853 118.399 52.072C118.917 51.8587 119.49 51.752 120.119 51.752C120.573 51.752 120.975 51.8267 121.327 51.976C121.679 52.1253 121.975 52.3333 122.215 52.6C122.455 52.8667 122.637 53.1893 122.759 53.568C122.882 53.9467 122.943 54.3627 122.943 54.816V60H122.311C122.173 60 122.066 59.9787 121.991 59.936C121.917 59.888 121.858 59.7973 121.815 59.664L121.655 58.896C121.442 59.0933 121.234 59.2693 121.031 59.424C120.829 59.5733 120.615 59.7013 120.391 59.808C120.167 59.9093 119.927 59.9867 119.671 60.04C119.421 60.0987 119.141 60.128 118.831 60.128C118.517 60.128 118.221 60.0853 117.943 60C117.666 59.9093 117.423 59.776 117.215 59.6C117.013 59.424 116.85 59.2027 116.727 58.936C116.61 58.664 116.551 58.344 116.551 57.976C116.551 57.656 116.639 57.3493 116.815 57.056C116.991 56.7573 117.277 56.4933 117.671 56.264C118.066 56.0347 118.581 55.848 119.215 55.704C119.85 55.5547 120.629 55.4693 121.551 55.448V54.816C121.551 54.1867 121.415 53.712 121.143 53.392C120.871 53.0667 120.474 52.904 119.951 52.904C119.599 52.904 119.303 52.9493 119.063 53.04C118.829 53.1253 118.623 53.224 118.447 53.336C118.277 53.4427 118.127 53.5413 117.999 53.632C117.877 53.7173 117.754 53.76 117.631 53.76C117.535 53.76 117.453 53.736 117.383 53.688C117.314 53.6347 117.255 53.5707 117.207 53.496L116.951 53.04ZM129.832 53.232C129.768 53.3493 129.67 53.408 129.536 53.408C129.456 53.408 129.366 53.3787 129.264 53.32C129.163 53.2613 129.038 53.1973 128.888 53.128C128.744 53.0533 128.571 52.9867 128.368 52.928C128.166 52.864 127.926 52.832 127.648 52.832C127.408 52.832 127.192 52.864 127 52.928C126.808 52.9867 126.643 53.0693 126.504 53.176C126.371 53.2827 126.267 53.408 126.192 53.552C126.123 53.6907 126.088 53.8427 126.088 54.008C126.088 54.216 126.147 54.3893 126.264 54.528C126.387 54.6667 126.547 54.7867 126.744 54.888C126.942 54.9893 127.166 55.08 127.416 55.16C127.667 55.2347 127.923 55.3173 128.184 55.408C128.451 55.4933 128.71 55.5893 128.96 55.696C129.211 55.8027 129.435 55.936 129.632 56.096C129.83 56.256 129.987 56.4533 130.104 56.688C130.227 56.9173 130.288 57.1947 130.288 57.52C130.288 57.8933 130.222 58.24 130.088 58.56C129.955 58.8747 129.758 59.1493 129.496 59.384C129.235 59.6133 128.915 59.7947 128.536 59.928C128.158 60.0613 127.72 60.128 127.224 60.128C126.659 60.128 126.147 60.0373 125.688 59.856C125.23 59.6693 124.84 59.432 124.52 59.144L124.856 58.6C124.899 58.5307 124.95 58.4773 125.008 58.44C125.067 58.4027 125.142 58.384 125.232 58.384C125.328 58.384 125.43 58.4213 125.536 58.496C125.643 58.5707 125.771 58.6533 125.92 58.744C126.075 58.8347 126.262 58.9173 126.48 58.992C126.699 59.0667 126.971 59.104 127.296 59.104C127.574 59.104 127.816 59.0693 128.024 59C128.232 58.9253 128.406 58.8267 128.544 58.704C128.683 58.5813 128.784 58.44 128.848 58.28C128.918 58.12 128.952 57.9493 128.952 57.768C128.952 57.544 128.891 57.36 128.768 57.216C128.651 57.0667 128.494 56.9413 128.296 56.84C128.099 56.7333 127.872 56.6427 127.616 56.568C127.366 56.488 127.107 56.4053 126.84 56.32C126.579 56.2347 126.32 56.1387 126.064 56.032C125.814 55.92 125.59 55.7813 125.392 55.616C125.195 55.4507 125.035 55.248 124.912 55.008C124.795 54.7627 124.736 54.4667 124.736 54.12C124.736 53.8107 124.8 53.5147 124.928 53.232C125.056 52.944 125.243 52.6933 125.488 52.48C125.734 52.2613 126.035 52.088 126.392 51.96C126.75 51.832 127.158 51.768 127.616 51.768C128.15 51.768 128.627 51.8533 129.048 52.024C129.475 52.1893 129.843 52.4187 130.152 52.712L129.832 53.232ZM134.522 60.128C133.882 60.128 133.389 59.9493 133.042 59.592C132.701 59.2347 132.53 58.72 132.53 58.048V53.088H131.554C131.469 53.088 131.397 53.064 131.338 53.016C131.28 52.9627 131.25 52.8827 131.25 52.776V52.208L132.578 52.04L132.906 49.536C132.922 49.456 132.957 49.392 133.01 49.344C133.069 49.2907 133.144 49.264 133.234 49.264H133.954V52.056H136.298V53.088H133.954V57.952C133.954 58.2933 134.037 58.5467 134.202 58.712C134.368 58.8773 134.581 58.96 134.842 58.96C134.992 58.96 135.12 58.9413 135.226 58.904C135.338 58.8613 135.434 58.816 135.514 58.768C135.594 58.72 135.661 58.6773 135.714 58.64C135.773 58.5973 135.824 58.576 135.866 58.576C135.941 58.576 136.008 58.6213 136.066 58.712L136.482 59.392C136.237 59.6213 135.941 59.8027 135.594 59.936C135.248 60.064 134.89 60.128 134.522 60.128ZM143.334 48.216V60H141.91V48.216H143.334ZM147.148 51.896V60H145.724V51.896H147.148ZM147.452 49.352C147.452 49.4907 147.422 49.6213 147.364 49.744C147.31 49.8613 147.236 49.968 147.14 50.064C147.049 50.1547 146.94 50.2267 146.812 50.28C146.689 50.3333 146.558 50.36 146.42 50.36C146.281 50.36 146.15 50.3333 146.028 50.28C145.91 50.2267 145.806 50.1547 145.716 50.064C145.625 49.968 145.553 49.8613 145.5 49.744C145.446 49.6213 145.42 49.4907 145.42 49.352C145.42 49.2133 145.446 49.0827 145.5 48.96C145.553 48.832 145.625 48.7227 145.716 48.632C145.806 48.536 145.91 48.4613 146.028 48.408C146.15 48.3547 146.281 48.328 146.42 48.328C146.558 48.328 146.689 48.3547 146.812 48.408C146.94 48.4613 147.049 48.536 147.14 48.632C147.236 48.7227 147.31 48.832 147.364 48.96C147.422 49.0827 147.452 49.2133 147.452 49.352ZM154.207 53.232C154.143 53.3493 154.045 53.408 153.911 53.408C153.831 53.408 153.741 53.3787 153.639 53.32C153.538 53.2613 153.413 53.1973 153.263 53.128C153.119 53.0533 152.946 52.9867 152.743 52.928C152.541 52.864 152.301 52.832 152.023 52.832C151.783 52.832 151.567 52.864 151.375 52.928C151.183 52.9867 151.018 53.0693 150.879 53.176C150.746 53.2827 150.642 53.408 150.567 53.552C150.498 53.6907 150.463 53.8427 150.463 54.008C150.463 54.216 150.522 54.3893 150.639 54.528C150.762 54.6667 150.922 54.7867 151.119 54.888C151.317 54.9893 151.541 55.08 151.791 55.16C152.042 55.2347 152.298 55.3173 152.559 55.408C152.826 55.4933 153.085 55.5893 153.335 55.696C153.586 55.8027 153.81 55.936 154.007 56.096C154.205 56.256 154.362 56.4533 154.479 56.688C154.602 56.9173 154.663 57.1947 154.663 57.52C154.663 57.8933 154.597 58.24 154.463 58.56C154.33 58.8747 154.133 59.1493 153.871 59.384C153.61 59.6133 153.29 59.7947 152.911 59.928C152.533 60.0613 152.095 60.128 151.599 60.128C151.034 60.128 150.522 60.0373 150.063 59.856C149.605 59.6693 149.215 59.432 148.895 59.144L149.231 58.6C149.274 58.5307 149.325 58.4773 149.383 58.44C149.442 58.4027 149.517 58.384 149.607 58.384C149.703 58.384 149.805 58.4213 149.911 58.496C150.018 58.5707 150.146 58.6533 150.295 58.744C150.45 58.8347 150.637 58.9173 150.855 58.992C151.074 59.0667 151.346 59.104 151.671 59.104C151.949 59.104 152.191 59.0693 152.399 59C152.607 58.9253 152.781 58.8267 152.919 58.704C153.058 58.5813 153.159 58.44 153.223 58.28C153.293 58.12 153.327 57.9493 153.327 57.768C153.327 57.544 153.266 57.36 153.143 57.216C153.026 57.0667 152.869 56.9413 152.671 56.84C152.474 56.7333 152.247 56.6427 151.991 56.568C151.741 56.488 151.482 56.4053 151.215 56.32C150.954 56.2347 150.695 56.1387 150.439 56.032C150.189 55.92 149.965 55.7813 149.767 55.616C149.57 55.4507 149.41 55.248 149.287 55.008C149.17 54.7627 149.111 54.4667 149.111 54.12C149.111 53.8107 149.175 53.5147 149.303 53.232C149.431 52.944 149.618 52.6933 149.863 52.48C150.109 52.2613 150.41 52.088 150.767 51.96C151.125 51.832 151.533 51.768 151.991 51.768C152.525 51.768 153.002 51.8533 153.423 52.024C153.85 52.1893 154.218 52.4187 154.527 52.712L154.207 53.232ZM158.897 60.128C158.257 60.128 157.764 59.9493 157.417 59.592C157.076 59.2347 156.905 58.72 156.905 58.048V53.088H155.929C155.844 53.088 155.772 53.064 155.713 53.016C155.655 52.9627 155.625 52.8827 155.625 52.776V52.208L156.953 52.04L157.281 49.536C157.297 49.456 157.332 49.392 157.385 49.344C157.444 49.2907 157.519 49.264 157.609 49.264H158.329V52.056H160.673V53.088H158.329V57.952C158.329 58.2933 158.412 58.5467 158.577 58.712C158.743 58.8773 158.956 58.96 159.217 58.96C159.367 58.96 159.495 58.9413 159.601 58.904C159.713 58.8613 159.809 58.816 159.889 58.768C159.969 58.72 160.036 58.6773 160.089 58.64C160.148 58.5973 160.199 58.576 160.241 58.576C160.316 58.576 160.383 58.6213 160.441 58.712L160.857 59.392C160.612 59.6213 160.316 59.8027 159.969 59.936C159.623 60.064 159.265 60.128 158.897 60.128ZM167.521 55.064C167.521 54.7333 167.473 54.432 167.377 54.16C167.286 53.8827 167.15 53.6453 166.969 53.448C166.793 53.2453 166.577 53.0907 166.321 52.984C166.065 52.872 165.774 52.816 165.449 52.816C164.766 52.816 164.225 53.016 163.825 53.416C163.43 53.8107 163.185 54.36 163.089 55.064H167.521ZM168.673 58.864C168.497 59.0773 168.286 59.264 168.041 59.424C167.795 59.5787 167.531 59.7067 167.249 59.808C166.971 59.9093 166.683 59.984 166.385 60.032C166.086 60.0853 165.79 60.112 165.497 60.112C164.937 60.112 164.419 60.0187 163.945 59.832C163.475 59.64 163.067 59.3627 162.721 59C162.379 58.632 162.113 58.1787 161.921 57.64C161.729 57.1013 161.633 56.4827 161.633 55.784C161.633 55.2187 161.718 54.6907 161.889 54.2C162.065 53.7093 162.315 53.2853 162.641 52.928C162.966 52.5653 163.363 52.2827 163.833 52.08C164.302 51.872 164.83 51.768 165.417 51.768C165.902 51.768 166.35 51.8507 166.761 52.016C167.177 52.176 167.534 52.4107 167.833 52.72C168.137 53.024 168.374 53.4027 168.545 53.856C168.715 54.304 168.801 54.816 168.801 55.392C168.801 55.616 168.777 55.7653 168.729 55.84C168.681 55.9147 168.59 55.952 168.457 55.952H163.041C163.057 56.464 163.126 56.9093 163.249 57.288C163.377 57.6667 163.553 57.984 163.777 58.24C164.001 58.4907 164.267 58.68 164.577 58.808C164.886 58.9307 165.233 58.992 165.617 58.992C165.974 58.992 166.281 58.952 166.537 58.872C166.798 58.7867 167.022 58.696 167.209 58.6C167.395 58.504 167.55 58.416 167.673 58.336C167.801 58.2507 167.91 58.208 168.001 58.208C168.118 58.208 168.209 58.2533 168.273 58.344L168.673 58.864ZM171.894 53.072C172.07 52.8747 172.257 52.696 172.454 52.536C172.651 52.376 172.859 52.24 173.078 52.128C173.302 52.0107 173.537 51.9227 173.782 51.864C174.033 51.8 174.302 51.768 174.59 51.768C175.033 51.768 175.422 51.8427 175.758 51.992C176.099 52.136 176.382 52.344 176.606 52.616C176.835 52.8827 177.009 53.2053 177.126 53.584C177.243 53.9627 177.302 54.3813 177.302 54.84V60H175.87V54.84C175.87 54.2267 175.729 53.752 175.446 53.416C175.169 53.0747 174.745 52.904 174.174 52.904C173.753 52.904 173.358 53.0053 172.99 53.208C172.627 53.4107 172.291 53.6853 171.982 54.032V60H170.55V51.896H171.406C171.609 51.896 171.734 51.9947 171.782 52.192L171.894 53.072ZM180.976 51.896V60H179.552V51.896H180.976ZM181.28 49.352C181.28 49.4907 181.25 49.6213 181.192 49.744C181.138 49.8613 181.064 49.968 180.968 50.064C180.877 50.1547 180.768 50.2267 180.64 50.28C180.517 50.3333 180.386 50.36 180.248 50.36C180.109 50.36 179.978 50.3333 179.856 50.28C179.738 50.2267 179.634 50.1547 179.544 50.064C179.453 49.968 179.381 49.8613 179.328 49.744C179.274 49.6213 179.248 49.4907 179.248 49.352C179.248 49.2133 179.274 49.0827 179.328 48.96C179.381 48.832 179.453 48.7227 179.544 48.632C179.634 48.536 179.738 48.4613 179.856 48.408C179.978 48.3547 180.109 48.328 180.248 48.328C180.386 48.328 180.517 48.3547 180.64 48.408C180.768 48.4613 180.877 48.536 180.968 48.632C181.064 48.7227 181.138 48.832 181.192 48.96C181.25 49.0827 181.28 49.2133 181.28 49.352ZM184.66 53.072C184.836 52.8747 185.022 52.696 185.22 52.536C185.417 52.376 185.625 52.24 185.844 52.128C186.068 52.0107 186.302 51.9227 186.548 51.864C186.798 51.8 187.068 51.768 187.356 51.768C187.798 51.768 188.188 51.8427 188.524 51.992C188.865 52.136 189.148 52.344 189.372 52.616C189.601 52.8827 189.774 53.2053 189.892 53.584C190.009 53.9627 190.068 54.3813 190.068 54.84V60H188.636V54.84C188.636 54.2267 188.494 53.752 188.212 53.416C187.934 53.0747 187.51 52.904 186.94 52.904C186.518 52.904 186.124 53.0053 185.756 53.208C185.393 53.4107 185.057 53.6853 184.748 54.032V60H183.316V51.896H184.172C184.374 51.896 184.5 51.9947 184.548 52.192L184.66 53.072ZM195.061 56.04C195.349 56.04 195.603 56 195.821 55.92C196.04 55.84 196.224 55.728 196.373 55.584C196.523 55.44 196.635 55.2693 196.709 55.072C196.784 54.8693 196.821 54.648 196.821 54.408C196.821 53.912 196.669 53.5173 196.365 53.224C196.067 52.9307 195.632 52.784 195.061 52.784C194.485 52.784 194.045 52.9307 193.741 53.224C193.443 53.5173 193.293 53.912 193.293 54.408C193.293 54.648 193.331 54.8693 193.405 55.072C193.485 55.2693 193.6 55.44 193.749 55.584C193.899 55.728 194.083 55.84 194.301 55.92C194.52 56 194.773 56.04 195.061 56.04ZM197.629 60.44C197.629 60.2427 197.573 60.0827 197.461 59.96C197.349 59.8373 197.197 59.7413 197.005 59.672C196.819 59.6027 196.6 59.5547 196.349 59.528C196.099 59.496 195.832 59.472 195.549 59.456C195.272 59.44 194.989 59.424 194.701 59.408C194.413 59.392 194.136 59.3653 193.869 59.328C193.571 59.4667 193.325 59.6427 193.133 59.856C192.947 60.064 192.853 60.3093 192.853 60.592C192.853 60.7733 192.899 60.9413 192.989 61.096C193.085 61.256 193.229 61.392 193.421 61.504C193.613 61.6213 193.853 61.712 194.141 61.776C194.435 61.8453 194.779 61.88 195.173 61.88C195.557 61.88 195.901 61.8453 196.205 61.776C196.509 61.7067 196.765 61.608 196.973 61.48C197.187 61.352 197.349 61.2 197.461 61.024C197.573 60.848 197.629 60.6533 197.629 60.44ZM199.077 52.216V52.744C199.077 52.92 198.965 53.032 198.741 53.08L197.821 53.2C198.003 53.552 198.093 53.9413 198.093 54.368C198.093 54.7627 198.016 55.1227 197.861 55.448C197.712 55.768 197.504 56.0427 197.237 56.272C196.971 56.5013 196.651 56.6773 196.277 56.8C195.904 56.9227 195.499 56.984 195.061 56.984C194.683 56.984 194.325 56.9387 193.989 56.848C193.819 56.9547 193.688 57.0693 193.597 57.192C193.507 57.3093 193.461 57.4293 193.461 57.552C193.461 57.744 193.539 57.8907 193.693 57.992C193.853 58.088 194.061 58.1573 194.317 58.2C194.573 58.2427 194.864 58.2693 195.189 58.28C195.52 58.2907 195.856 58.3093 196.197 58.336C196.544 58.3573 196.88 58.3973 197.205 58.456C197.536 58.5147 197.829 58.6107 198.085 58.744C198.341 58.8773 198.547 59.0613 198.701 59.296C198.861 59.5307 198.941 59.8347 198.941 60.208C198.941 60.5547 198.853 60.8907 198.677 61.216C198.507 61.5413 198.259 61.8293 197.933 62.08C197.608 62.336 197.208 62.5387 196.733 62.688C196.264 62.8427 195.733 62.92 195.141 62.92C194.549 62.92 194.032 62.8613 193.589 62.744C193.147 62.6267 192.779 62.4693 192.485 62.272C192.192 62.0747 191.971 61.8453 191.821 61.584C191.677 61.328 191.605 61.0587 191.605 60.776C191.605 60.376 191.731 60.0373 191.981 59.76C192.232 59.4827 192.576 59.2613 193.013 59.096C192.773 58.9893 192.581 58.848 192.437 58.672C192.299 58.4907 192.229 58.248 192.229 57.944C192.229 57.8267 192.251 57.7067 192.293 57.584C192.336 57.456 192.4 57.3307 192.485 57.208C192.576 57.08 192.685 56.96 192.813 56.848C192.941 56.736 193.091 56.6373 193.261 56.552C192.861 56.328 192.549 56.032 192.325 55.664C192.101 55.2907 191.989 54.8587 191.989 54.368C191.989 53.9733 192.064 53.616 192.213 53.296C192.368 52.9707 192.581 52.696 192.853 52.472C193.125 52.2427 193.448 52.0667 193.821 51.944C194.2 51.8213 194.613 51.76 195.061 51.76C195.413 51.76 195.741 51.8 196.045 51.88C196.349 51.9547 196.627 52.0667 196.877 52.216H199.077ZM206.076 58.048C206.337 58.4 206.622 58.648 206.932 58.792C207.241 58.936 207.588 59.008 207.972 59.008C208.729 59.008 209.31 58.7387 209.716 58.2C210.121 57.6613 210.324 56.8933 210.324 55.896C210.324 55.368 210.276 54.9147 210.18 54.536C210.089 54.1573 209.956 53.848 209.78 53.608C209.604 53.3627 209.388 53.184 209.132 53.072C208.876 52.96 208.585 52.904 208.26 52.904C207.796 52.904 207.388 53.0107 207.036 53.224C206.689 53.4373 206.369 53.7387 206.076 54.128V58.048ZM206.004 53.152C206.345 52.7307 206.74 52.392 207.188 52.136C207.636 51.88 208.148 51.752 208.724 51.752C209.193 51.752 209.617 51.8427 209.996 52.024C210.374 52.2 210.697 52.464 210.964 52.816C211.23 53.1627 211.436 53.5947 211.58 54.112C211.724 54.6293 211.796 55.224 211.796 55.896C211.796 56.4933 211.716 57.0507 211.556 57.568C211.396 58.08 211.164 58.5253 210.86 58.904C210.561 59.2773 210.193 59.5733 209.756 59.792C209.324 60.0053 208.836 60.112 208.292 60.112C207.796 60.112 207.369 60.0293 207.012 59.864C206.66 59.6933 206.348 59.4587 206.076 59.16V62.744H204.644V51.896H205.5C205.702 51.896 205.828 51.9947 205.876 52.192L206.004 53.152ZM214.964 53.52C215.22 52.9653 215.535 52.5333 215.908 52.224C216.282 51.9093 216.738 51.752 217.276 51.752C217.447 51.752 217.61 51.7707 217.764 51.808C217.924 51.8453 218.066 51.904 218.188 51.984L218.084 53.048C218.052 53.1813 217.972 53.248 217.844 53.248C217.77 53.248 217.66 53.232 217.516 53.2C217.372 53.168 217.21 53.152 217.028 53.152C216.772 53.152 216.543 53.1893 216.34 53.264C216.143 53.3387 215.964 53.4507 215.804 53.6C215.65 53.744 215.508 53.9253 215.38 54.144C215.258 54.3573 215.146 54.6027 215.044 54.88V60H213.612V51.896H214.428C214.583 51.896 214.69 51.9253 214.748 51.984C214.807 52.0427 214.847 52.144 214.868 52.288L214.964 53.52ZM222.528 51.768C223.12 51.768 223.654 51.8667 224.128 52.064C224.603 52.2613 225.008 52.5413 225.344 52.904C225.68 53.2667 225.936 53.7067 226.112 54.224C226.294 54.736 226.384 55.3093 226.384 55.944C226.384 56.584 226.294 57.16 226.112 57.672C225.936 58.184 225.68 58.6213 225.344 58.984C225.008 59.3467 224.603 59.6267 224.128 59.824C223.654 60.016 223.12 60.112 222.528 60.112C221.931 60.112 221.392 60.016 220.912 59.824C220.438 59.6267 220.032 59.3467 219.696 58.984C219.36 58.6213 219.102 58.184 218.92 57.672C218.744 57.16 218.656 56.584 218.656 55.944C218.656 55.3093 218.744 54.736 218.92 54.224C219.102 53.7067 219.36 53.2667 219.696 52.904C220.032 52.5413 220.438 52.2613 220.912 52.064C221.392 51.8667 221.931 51.768 222.528 51.768ZM222.528 59C223.328 59 223.926 58.7333 224.32 58.2C224.715 57.6613 224.912 56.912 224.912 55.952C224.912 54.9867 224.715 54.2347 224.32 53.696C223.926 53.1573 223.328 52.888 222.528 52.888C222.123 52.888 221.768 52.9573 221.464 53.096C221.166 53.2347 220.915 53.4347 220.712 53.696C220.515 53.9573 220.366 54.28 220.264 54.664C220.168 55.0427 220.12 55.472 220.12 55.952C220.12 56.912 220.318 57.6613 220.712 58.2C221.112 58.7333 221.718 59 222.528 59ZM230.968 56.04C231.256 56.04 231.509 56 231.728 55.92C231.946 55.84 232.13 55.728 232.28 55.584C232.429 55.44 232.541 55.2693 232.616 55.072C232.69 54.8693 232.728 54.648 232.728 54.408C232.728 53.912 232.576 53.5173 232.272 53.224C231.973 52.9307 231.538 52.784 230.968 52.784C230.392 52.784 229.952 52.9307 229.648 53.224C229.349 53.5173 229.2 53.912 229.2 54.408C229.2 54.648 229.237 54.8693 229.312 55.072C229.392 55.2693 229.506 55.44 229.656 55.584C229.805 55.728 229.989 55.84 230.208 55.92C230.426 56 230.68 56.04 230.968 56.04ZM233.536 60.44C233.536 60.2427 233.48 60.0827 233.368 59.96C233.256 59.8373 233.104 59.7413 232.912 59.672C232.725 59.6027 232.506 59.5547 232.256 59.528C232.005 59.496 231.738 59.472 231.456 59.456C231.178 59.44 230.896 59.424 230.608 59.408C230.32 59.392 230.042 59.3653 229.776 59.328C229.477 59.4667 229.232 59.6427 229.04 59.856C228.853 60.064 228.76 60.3093 228.76 60.592C228.76 60.7733 228.805 60.9413 228.896 61.096C228.992 61.256 229.136 61.392 229.328 61.504C229.52 61.6213 229.76 61.712 230.048 61.776C230.341 61.8453 230.685 61.88 231.08 61.88C231.464 61.88 231.808 61.8453 232.112 61.776C232.416 61.7067 232.672 61.608 232.88 61.48C233.093 61.352 233.256 61.2 233.368 61.024C233.48 60.848 233.536 60.6533 233.536 60.44ZM234.984 52.216V52.744C234.984 52.92 234.872 53.032 234.648 53.08L233.728 53.2C233.909 53.552 234 53.9413 234 54.368C234 54.7627 233.922 55.1227 233.768 55.448C233.618 55.768 233.41 56.0427 233.144 56.272C232.877 56.5013 232.557 56.6773 232.184 56.8C231.81 56.9227 231.405 56.984 230.968 56.984C230.589 56.984 230.232 56.9387 229.896 56.848C229.725 56.9547 229.594 57.0693 229.504 57.192C229.413 57.3093 229.368 57.4293 229.368 57.552C229.368 57.744 229.445 57.8907 229.6 57.992C229.76 58.088 229.968 58.1573 230.224 58.2C230.48 58.2427 230.77 58.2693 231.096 58.28C231.426 58.2907 231.762 58.3093 232.104 58.336C232.45 58.3573 232.786 58.3973 233.112 58.456C233.442 58.5147 233.736 58.6107 233.992 58.744C234.248 58.8773 234.453 59.0613 234.608 59.296C234.768 59.5307 234.848 59.8347 234.848 60.208C234.848 60.5547 234.76 60.8907 234.584 61.216C234.413 61.5413 234.165 61.8293 233.84 62.08C233.514 62.336 233.114 62.5387 232.64 62.688C232.17 62.8427 231.64 62.92 231.048 62.92C230.456 62.92 229.938 62.8613 229.496 62.744C229.053 62.6267 228.685 62.4693 228.392 62.272C228.098 62.0747 227.877 61.8453 227.728 61.584C227.584 61.328 227.512 61.0587 227.512 60.776C227.512 60.376 227.637 60.0373 227.888 59.76C228.138 59.4827 228.482 59.2613 228.92 59.096C228.68 58.9893 228.488 58.848 228.344 58.672C228.205 58.4907 228.136 58.248 228.136 57.944C228.136 57.8267 228.157 57.7067 228.2 57.584C228.242 57.456 228.306 57.3307 228.392 57.208C228.482 57.08 228.592 56.96 228.72 56.848C228.848 56.736 228.997 56.6373 229.168 56.552C228.768 56.328 228.456 56.032 228.232 55.664C228.008 55.2907 227.896 54.8587 227.896 54.368C227.896 53.9733 227.97 53.616 228.12 53.296C228.274 52.9707 228.488 52.696 228.76 52.472C229.032 52.2427 229.354 52.0667 229.728 51.944C230.106 51.8213 230.52 51.76 230.968 51.76C231.32 51.76 231.648 51.8 231.952 51.88C232.256 51.9547 232.533 52.0667 232.784 52.216H234.984ZM237.808 53.52C238.064 52.9653 238.379 52.5333 238.752 52.224C239.125 51.9093 239.581 51.752 240.12 51.752C240.291 51.752 240.453 51.7707 240.608 51.808C240.768 51.8453 240.909 51.904 241.032 51.984L240.928 53.048C240.896 53.1813 240.816 53.248 240.688 53.248C240.613 53.248 240.504 53.232 240.36 53.2C240.216 53.168 240.053 53.152 239.872 53.152C239.616 53.152 239.387 53.1893 239.184 53.264C238.987 53.3387 238.808 53.4507 238.648 53.6C238.493 53.744 238.352 53.9253 238.224 54.144C238.101 54.3573 237.989 54.6027 237.888 54.88V60H236.456V51.896H237.272C237.427 51.896 237.533 51.9253 237.592 51.984C237.651 52.0427 237.691 52.144 237.712 52.288L237.808 53.52ZM247.38 55.064C247.38 54.7333 247.332 54.432 247.236 54.16C247.145 53.8827 247.009 53.6453 246.828 53.448C246.652 53.2453 246.436 53.0907 246.18 52.984C245.924 52.872 245.633 52.816 245.308 52.816C244.625 52.816 244.084 53.016 243.684 53.416C243.289 53.8107 243.044 54.36 242.948 55.064H247.38ZM248.532 58.864C248.356 59.0773 248.145 59.264 247.9 59.424C247.655 59.5787 247.391 59.7067 247.108 59.808C246.831 59.9093 246.543 59.984 246.244 60.032C245.945 60.0853 245.649 60.112 245.356 60.112C244.796 60.112 244.279 60.0187 243.804 59.832C243.335 59.64 242.927 59.3627 242.58 59C242.239 58.632 241.972 58.1787 241.78 57.64C241.588 57.1013 241.492 56.4827 241.492 55.784C241.492 55.2187 241.577 54.6907 241.748 54.2C241.924 53.7093 242.175 53.2853 242.5 52.928C242.825 52.5653 243.223 52.2827 243.692 52.08C244.161 51.872 244.689 51.768 245.276 51.768C245.761 51.768 246.209 51.8507 246.62 52.016C247.036 52.176 247.393 52.4107 247.692 52.72C247.996 53.024 248.233 53.4027 248.404 53.856C248.575 54.304 248.66 54.816 248.66 55.392C248.66 55.616 248.636 55.7653 248.588 55.84C248.54 55.9147 248.449 55.952 248.316 55.952H242.9C242.916 56.464 242.985 56.9093 243.108 57.288C243.236 57.6667 243.412 57.984 243.636 58.24C243.86 58.4907 244.127 58.68 244.436 58.808C244.745 58.9307 245.092 58.992 245.476 58.992C245.833 58.992 246.14 58.952 246.396 58.872C246.657 58.7867 246.881 58.696 247.068 58.6C247.255 58.504 247.409 58.416 247.532 58.336C247.66 58.2507 247.769 58.208 247.86 58.208C247.977 58.208 248.068 58.2533 248.132 58.344L248.532 58.864ZM255.129 53.232C255.065 53.3493 254.967 53.408 254.833 53.408C254.753 53.408 254.663 53.3787 254.561 53.32C254.46 53.2613 254.335 53.1973 254.185 53.128C254.041 53.0533 253.868 52.9867 253.665 52.928C253.463 52.864 253.223 52.832 252.945 52.832C252.705 52.832 252.489 52.864 252.297 52.928C252.105 52.9867 251.94 53.0693 251.801 53.176C251.668 53.2827 251.564 53.408 251.489 53.552C251.42 53.6907 251.385 53.8427 251.385 54.008C251.385 54.216 251.444 54.3893 251.561 54.528C251.684 54.6667 251.844 54.7867 252.041 54.888C252.239 54.9893 252.463 55.08 252.713 55.16C252.964 55.2347 253.22 55.3173 253.481 55.408C253.748 55.4933 254.007 55.5893 254.257 55.696C254.508 55.8027 254.732 55.936 254.929 56.096C255.127 56.256 255.284 56.4533 255.401 56.688C255.524 56.9173 255.585 57.1947 255.585 57.52C255.585 57.8933 255.519 58.24 255.385 58.56C255.252 58.8747 255.055 59.1493 254.793 59.384C254.532 59.6133 254.212 59.7947 253.833 59.928C253.455 60.0613 253.017 60.128 252.521 60.128C251.956 60.128 251.444 60.0373 250.985 59.856C250.527 59.6693 250.137 59.432 249.817 59.144L250.153 58.6C250.196 58.5307 250.247 58.4773 250.305 58.44C250.364 58.4027 250.439 58.384 250.529 58.384C250.625 58.384 250.727 58.4213 250.833 58.496C250.94 58.5707 251.068 58.6533 251.217 58.744C251.372 58.8347 251.559 58.9173 251.777 58.992C251.996 59.0667 252.268 59.104 252.593 59.104C252.871 59.104 253.113 59.0693 253.321 59C253.529 58.9253 253.703 58.8267 253.841 58.704C253.98 58.5813 254.081 58.44 254.145 58.28C254.215 58.12 254.249 57.9493 254.249 57.768C254.249 57.544 254.188 57.36 254.065 57.216C253.948 57.0667 253.791 56.9413 253.593 56.84C253.396 56.7333 253.169 56.6427 252.913 56.568C252.663 56.488 252.404 56.4053 252.137 56.32C251.876 56.2347 251.617 56.1387 251.361 56.032C251.111 55.92 250.887 55.7813 250.689 55.616C250.492 55.4507 250.332 55.248 250.209 55.008C250.092 54.7627 250.033 54.4667 250.033 54.12C250.033 53.8107 250.097 53.5147 250.225 53.232C250.353 52.944 250.54 52.6933 250.785 52.48C251.031 52.2613 251.332 52.088 251.689 51.96C252.047 51.832 252.455 51.768 252.913 51.768C253.447 51.768 253.924 51.8533 254.345 52.024C254.772 52.1893 255.14 52.4187 255.449 52.712L255.129 53.232ZM262.051 53.232C261.987 53.3493 261.888 53.408 261.755 53.408C261.675 53.408 261.584 53.3787 261.483 53.32C261.382 53.2613 261.256 53.1973 261.107 53.128C260.963 53.0533 260.79 52.9867 260.587 52.928C260.384 52.864 260.144 52.832 259.867 52.832C259.627 52.832 259.411 52.864 259.219 52.928C259.027 52.9867 258.862 53.0693 258.723 53.176C258.59 53.2827 258.486 53.408 258.411 53.552C258.342 53.6907 258.307 53.8427 258.307 54.008C258.307 54.216 258.366 54.3893 258.483 54.528C258.606 54.6667 258.766 54.7867 258.963 54.888C259.16 54.9893 259.384 55.08 259.635 55.16C259.886 55.2347 260.142 55.3173 260.403 55.408C260.67 55.4933 260.928 55.5893 261.179 55.696C261.43 55.8027 261.654 55.936 261.851 56.096C262.048 56.256 262.206 56.4533 262.323 56.688C262.446 56.9173 262.507 57.1947 262.507 57.52C262.507 57.8933 262.44 58.24 262.307 58.56C262.174 58.8747 261.976 59.1493 261.715 59.384C261.454 59.6133 261.134 59.7947 260.755 59.928C260.376 60.0613 259.939 60.128 259.443 60.128C258.878 60.128 258.366 60.0373 257.907 59.856C257.448 59.6693 257.059 59.432 256.739 59.144L257.075 58.6C257.118 58.5307 257.168 58.4773 257.227 58.44C257.286 58.4027 257.36 58.384 257.451 58.384C257.547 58.384 257.648 58.4213 257.755 58.496C257.862 58.5707 257.99 58.6533 258.139 58.744C258.294 58.8347 258.48 58.9173 258.699 58.992C258.918 59.0667 259.19 59.104 259.515 59.104C259.792 59.104 260.035 59.0693 260.243 59C260.451 58.9253 260.624 58.8267 260.763 58.704C260.902 58.5813 261.003 58.44 261.067 58.28C261.136 58.12 261.171 57.9493 261.171 57.768C261.171 57.544 261.11 57.36 260.987 57.216C260.87 57.0667 260.712 56.9413 260.515 56.84C260.318 56.7333 260.091 56.6427 259.835 56.568C259.584 56.488 259.326 56.4053 259.059 56.32C258.798 56.2347 258.539 56.1387 258.283 56.032C258.032 55.92 257.808 55.7813 257.611 55.616C257.414 55.4507 257.254 55.248 257.131 55.008C257.014 54.7627 256.955 54.4667 256.955 54.12C256.955 53.8107 257.019 53.5147 257.147 53.232C257.275 52.944 257.462 52.6933 257.707 52.48C257.952 52.2613 258.254 52.088 258.611 51.96C258.968 51.832 259.376 51.768 259.835 51.768C260.368 51.768 260.846 51.8533 261.267 52.024C261.694 52.1893 262.062 52.4187 262.371 52.712L262.051 53.232ZM265.757 51.896V60H264.333V51.896H265.757ZM266.061 49.352C266.061 49.4907 266.032 49.6213 265.973 49.744C265.92 49.8613 265.845 49.968 265.749 50.064C265.658 50.1547 265.549 50.2267 265.421 50.28C265.298 50.3333 265.168 50.36 265.029 50.36C264.89 50.36 264.76 50.3333 264.637 50.28C264.52 50.2267 264.416 50.1547 264.325 50.064C264.234 49.968 264.162 49.8613 264.109 49.744C264.056 49.6213 264.029 49.4907 264.029 49.352C264.029 49.2133 264.056 49.0827 264.109 48.96C264.162 48.832 264.234 48.7227 264.325 48.632C264.416 48.536 264.52 48.4613 264.637 48.408C264.76 48.3547 264.89 48.328 265.029 48.328C265.168 48.328 265.298 48.3547 265.421 48.408C265.549 48.4613 265.658 48.536 265.749 48.632C265.845 48.7227 265.92 48.832 265.973 48.96C266.032 49.0827 266.061 49.2133 266.061 49.352ZM275.041 51.896L271.737 60H270.457L267.153 51.896H268.313C268.43 51.896 268.526 51.9253 268.601 51.984C268.675 52.0427 268.726 52.112 268.753 52.192L270.809 57.408C270.873 57.6053 270.929 57.7973 270.977 57.984C271.025 58.1707 271.07 58.3573 271.113 58.544C271.155 58.3573 271.201 58.1707 271.249 57.984C271.297 57.7973 271.355 57.6053 271.425 57.408L273.505 52.192C273.537 52.1067 273.59 52.0373 273.665 51.984C273.739 51.9253 273.827 51.896 273.929 51.896H275.041ZM281.552 55.064C281.552 54.7333 281.504 54.432 281.408 54.16C281.317 53.8827 281.181 53.6453 281 53.448C280.824 53.2453 280.608 53.0907 280.352 52.984C280.096 52.872 279.805 52.816 279.48 52.816C278.797 52.816 278.256 53.016 277.856 53.416C277.461 53.8107 277.216 54.36 277.12 55.064H281.552ZM282.704 58.864C282.528 59.0773 282.317 59.264 282.072 59.424C281.827 59.5787 281.563 59.7067 281.28 59.808C281.003 59.9093 280.715 59.984 280.416 60.032C280.117 60.0853 279.821 60.112 279.528 60.112C278.968 60.112 278.451 60.0187 277.976 59.832C277.507 59.64 277.099 59.3627 276.752 59C276.411 58.632 276.144 58.1787 275.952 57.64C275.76 57.1013 275.664 56.4827 275.664 55.784C275.664 55.2187 275.749 54.6907 275.92 54.2C276.096 53.7093 276.347 53.2853 276.672 52.928C276.997 52.5653 277.395 52.2827 277.864 52.08C278.333 51.872 278.861 51.768 279.448 51.768C279.933 51.768 280.381 51.8507 280.792 52.016C281.208 52.176 281.565 52.4107 281.864 52.72C282.168 53.024 282.405 53.4027 282.576 53.856C282.747 54.304 282.832 54.816 282.832 55.392C282.832 55.616 282.808 55.7653 282.76 55.84C282.712 55.9147 282.621 55.952 282.488 55.952H277.072C277.088 56.464 277.157 56.9093 277.28 57.288C277.408 57.6667 277.584 57.984 277.808 58.24C278.032 58.4907 278.299 58.68 278.608 58.808C278.917 58.9307 279.264 58.992 279.648 58.992C280.005 58.992 280.312 58.952 280.568 58.872C280.829 58.7867 281.053 58.696 281.24 58.6C281.427 58.504 281.581 58.416 281.704 58.336C281.832 58.2507 281.941 58.208 282.032 58.208C282.149 58.208 282.24 58.2533 282.304 58.344L282.704 58.864ZM299.523 51.896L296.899 60H295.771C295.632 60 295.536 59.9093 295.483 59.728L293.691 54.232C293.648 54.1093 293.613 53.9867 293.587 53.864C293.56 53.736 293.533 53.6107 293.507 53.488C293.48 53.6107 293.453 53.736 293.427 53.864C293.4 53.9867 293.365 54.112 293.323 54.24L291.499 59.728C291.451 59.9093 291.344 60 291.179 60H290.107L287.483 51.896H288.603C288.715 51.896 288.808 51.9253 288.883 51.984C288.963 52.0427 289.016 52.112 289.043 52.192L290.595 57.408C290.685 57.792 290.757 58.1547 290.811 58.496C290.859 58.32 290.907 58.1413 290.955 57.96C291.008 57.7787 291.064 57.5947 291.123 57.408L292.835 52.16C292.861 52.08 292.907 52.0133 292.971 51.96C293.04 51.9067 293.123 51.88 293.219 51.88H293.843C293.949 51.88 294.037 51.9067 294.107 51.96C294.176 52.0133 294.224 52.08 294.251 52.16L295.923 57.408C295.981 57.5947 296.035 57.7787 296.083 57.96C296.131 58.1413 296.176 58.32 296.219 58.496C296.245 58.32 296.277 58.144 296.315 57.968C296.357 57.7867 296.403 57.6 296.451 57.408L298.035 52.192C298.061 52.1067 298.112 52.0373 298.187 51.984C298.261 51.9253 298.349 51.896 298.451 51.896H299.523ZM306.224 55.064C306.224 54.7333 306.176 54.432 306.08 54.16C305.989 53.8827 305.853 53.6453 305.672 53.448C305.496 53.2453 305.28 53.0907 305.024 52.984C304.768 52.872 304.477 52.816 304.152 52.816C303.469 52.816 302.928 53.016 302.528 53.416C302.133 53.8107 301.888 54.36 301.792 55.064H306.224ZM307.376 58.864C307.2 59.0773 306.989 59.264 306.744 59.424C306.499 59.5787 306.235 59.7067 305.952 59.808C305.675 59.9093 305.387 59.984 305.088 60.032C304.789 60.0853 304.493 60.112 304.2 60.112C303.64 60.112 303.123 60.0187 302.648 59.832C302.179 59.64 301.771 59.3627 301.424 59C301.083 58.632 300.816 58.1787 300.624 57.64C300.432 57.1013 300.336 56.4827 300.336 55.784C300.336 55.2187 300.421 54.6907 300.592 54.2C300.768 53.7093 301.019 53.2853 301.344 52.928C301.669 52.5653 302.067 52.2827 302.536 52.08C303.005 51.872 303.533 51.768 304.12 51.768C304.605 51.768 305.053 51.8507 305.464 52.016C305.88 52.176 306.237 52.4107 306.536 52.72C306.84 53.024 307.077 53.4027 307.248 53.856C307.419 54.304 307.504 54.816 307.504 55.392C307.504 55.616 307.48 55.7653 307.432 55.84C307.384 55.9147 307.293 55.952 307.16 55.952H301.744C301.76 56.464 301.829 56.9093 301.952 57.288C302.08 57.6667 302.256 57.984 302.48 58.24C302.704 58.4907 302.971 58.68 303.28 58.808C303.589 58.9307 303.936 58.992 304.32 58.992C304.677 58.992 304.984 58.952 305.24 58.872C305.501 58.7867 305.725 58.696 305.912 58.6C306.099 58.504 306.253 58.416 306.376 58.336C306.504 58.2507 306.613 58.208 306.704 58.208C306.821 58.208 306.912 58.2533 306.976 58.344L307.376 58.864ZM310.685 58.048C310.946 58.4 311.232 58.648 311.541 58.792C311.856 58.936 312.2 59.008 312.573 59.008C313.336 59.008 313.92 58.7387 314.325 58.2C314.73 57.6613 314.933 56.8587 314.933 55.792C314.933 54.8 314.752 54.072 314.389 53.608C314.032 53.1387 313.52 52.904 312.853 52.904C312.389 52.904 311.984 53.0107 311.637 53.224C311.296 53.4373 310.978 53.7387 310.685 54.128V58.048ZM310.685 53.064C311.026 52.6693 311.41 52.3547 311.837 52.12C312.269 51.8853 312.765 51.768 313.325 51.768C313.8 51.768 314.226 51.8587 314.605 52.04C314.989 52.2213 315.314 52.4853 315.581 52.832C315.848 53.1733 316.05 53.5893 316.189 54.08C316.333 54.5707 316.405 55.1227 316.405 55.736C316.405 56.392 316.325 56.9893 316.165 57.528C316.005 58.0667 315.773 58.528 315.469 58.912C315.17 59.2907 314.805 59.5867 314.373 59.8C313.941 60.008 313.456 60.112 312.917 60.112C312.384 60.112 311.933 60.0133 311.565 59.816C311.202 59.6133 310.885 59.328 310.613 58.96L310.541 59.696C310.498 59.8987 310.376 60 310.173 60H309.253V48.216H310.685V53.064ZM326.692 56.352C326.036 56.3733 325.476 56.4267 325.012 56.512C324.553 56.592 324.177 56.6987 323.884 56.832C323.596 56.9653 323.385 57.1227 323.252 57.304C323.124 57.4853 323.06 57.688 323.06 57.912C323.06 58.1253 323.095 58.3093 323.164 58.464C323.233 58.6187 323.327 58.7467 323.444 58.848C323.567 58.944 323.708 59.016 323.868 59.064C324.033 59.1067 324.209 59.128 324.396 59.128C324.647 59.128 324.876 59.104 325.084 59.056C325.292 59.0027 325.487 58.928 325.668 58.832C325.855 58.736 326.031 58.6213 326.196 58.488C326.367 58.3547 326.532 58.2027 326.692 58.032V56.352ZM322.092 53.04C322.54 52.608 323.023 52.2853 323.54 52.072C324.057 51.8587 324.631 51.752 325.26 51.752C325.713 51.752 326.116 51.8267 326.468 51.976C326.82 52.1253 327.116 52.3333 327.356 52.6C327.596 52.8667 327.777 53.1893 327.9 53.568C328.023 53.9467 328.084 54.3627 328.084 54.816V60H327.452C327.313 60 327.207 59.9787 327.132 59.936C327.057 59.888 326.999 59.7973 326.956 59.664L326.796 58.896C326.583 59.0933 326.375 59.2693 326.172 59.424C325.969 59.5733 325.756 59.7013 325.532 59.808C325.308 59.9093 325.068 59.9867 324.812 60.04C324.561 60.0987 324.281 60.128 323.972 60.128C323.657 60.128 323.361 60.0853 323.084 60C322.807 59.9093 322.564 59.776 322.356 59.6C322.153 59.424 321.991 59.2027 321.868 58.936C321.751 58.664 321.692 58.344 321.692 57.976C321.692 57.656 321.78 57.3493 321.956 57.056C322.132 56.7573 322.417 56.4933 322.812 56.264C323.207 56.0347 323.721 55.848 324.356 55.704C324.991 55.5547 325.769 55.4693 326.692 55.448V54.816C326.692 54.1867 326.556 53.712 326.284 53.392C326.012 53.0667 325.615 52.904 325.092 52.904C324.74 52.904 324.444 52.9493 324.204 53.04C323.969 53.1253 323.764 53.224 323.588 53.336C323.417 53.4427 323.268 53.5413 323.14 53.632C323.017 53.7173 322.895 53.76 322.772 53.76C322.676 53.76 322.593 53.736 322.524 53.688C322.455 53.6347 322.396 53.5707 322.348 53.496L322.092 53.04ZM331.685 58.048C331.946 58.4 332.232 58.648 332.541 58.792C332.85 58.936 333.197 59.008 333.581 59.008C334.338 59.008 334.92 58.7387 335.325 58.2C335.73 57.6613 335.933 56.8933 335.933 55.896C335.933 55.368 335.885 54.9147 335.789 54.536C335.698 54.1573 335.565 53.848 335.389 53.608C335.213 53.3627 334.997 53.184 334.741 53.072C334.485 52.96 334.194 52.904 333.869 52.904C333.405 52.904 332.997 53.0107 332.645 53.224C332.298 53.4373 331.978 53.7387 331.685 54.128V58.048ZM331.613 53.152C331.954 52.7307 332.349 52.392 332.797 52.136C333.245 51.88 333.757 51.752 334.333 51.752C334.802 51.752 335.226 51.8427 335.605 52.024C335.984 52.2 336.306 52.464 336.573 52.816C336.84 53.1627 337.045 53.5947 337.189 54.112C337.333 54.6293 337.405 55.224 337.405 55.896C337.405 56.4933 337.325 57.0507 337.165 57.568C337.005 58.08 336.773 58.5253 336.469 58.904C336.17 59.2773 335.802 59.5733 335.365 59.792C334.933 60.0053 334.445 60.112 333.901 60.112C333.405 60.112 332.978 60.0293 332.621 59.864C332.269 59.6933 331.957 59.4587 331.685 59.16V62.744H330.253V51.896H331.109C331.312 51.896 331.437 51.9947 331.485 52.192L331.613 53.152ZM340.654 58.048C340.915 58.4 341.2 58.648 341.51 58.792C341.819 58.936 342.166 59.008 342.55 59.008C343.307 59.008 343.888 58.7387 344.294 58.2C344.699 57.6613 344.902 56.8933 344.902 55.896C344.902 55.368 344.854 54.9147 344.758 54.536C344.667 54.1573 344.534 53.848 344.358 53.608C344.182 53.3627 343.966 53.184 343.71 53.072C343.454 52.96 343.163 52.904 342.838 52.904C342.374 52.904 341.966 53.0107 341.614 53.224C341.267 53.4373 340.947 53.7387 340.654 54.128V58.048ZM340.582 53.152C340.923 52.7307 341.318 52.392 341.766 52.136C342.214 51.88 342.726 51.752 343.302 51.752C343.771 51.752 344.195 51.8427 344.574 52.024C344.952 52.2 345.275 52.464 345.542 52.816C345.808 53.1627 346.014 53.5947 346.158 54.112C346.302 54.6293 346.374 55.224 346.374 55.896C346.374 56.4933 346.294 57.0507 346.134 57.568C345.974 58.08 345.742 58.5253 345.438 58.904C345.139 59.2773 344.771 59.5733 344.334 59.792C343.902 60.0053 343.414 60.112 342.87 60.112C342.374 60.112 341.947 60.0293 341.59 59.864C341.238 59.6933 340.926 59.4587 340.654 59.16V62.744H339.222V51.896H340.078C340.28 51.896 340.406 51.9947 340.454 52.192L340.582 53.152Z" fill="#1E293B"/>
</g>
<defs>
<filter id="filter0_dd_112_2373" x="-5" y="12" width="58" height="59" filterUnits="userSpaceOnUse" color-interpolation-filters="sRGB">
<feFlood flood-opacity="0" result="BackgroundImageFix"/>
<feColorMatrix in="SourceAlpha" type="matrix" values="0 0 0 0 0 0 0 0 0 0 0 0 0 0 0 0 0 0 127 0" result="hardAlpha"/>
<feOffset dy="2"/>
<feGaussianBlur stdDeviation="2.5"/>
<feColorMatrix type="matrix" values="0 0 0 0 0 0 0 0 0 0 0 0 0 0 0 0 0 0 0.14 0"/>
<feBlend mode="normal" in2="BackgroundImageFix" result="effect1_dropShadow_112_2373"/>
<feColorMatrix in="SourceAlpha" type="matrix" values="0 0 0 0 0 0 0 0 0 0 0 0 0 0 0 0 0 0 127 0" result="hardAlpha"/>
<feOffset dy="1"/>
<feGaussianBlur stdDeviation="2.5"/>
<feColorMatrix type="matrix" values="0 0 0 0 0 0 0 0 0 0 0 0 0 0 0 0 0 0 0.12 0"/>
<feBlend mode="normal" in2="effect1_dropShadow_112_2373" result="effect2_dropShadow_112_2373"/>
<feBlend mode="normal" in="SourceGraphic" in2="effect2_dropShadow_112_2373" result="shape"/>
</filter>
<radialGradient id="paint0_radial_112_2373" cx="0" cy="0" r="1" gradientUnits="userSpaceOnUse" gradientTransform="translate(24 40) rotate(90) scale(24)">
<stop stop-color="#5490EB"/>
<stop offset="1" stop-color="#0848A9"/>
</radialGradient>
<clipPath id="clip0_112_2373">
<rect width="396" height="82" fill="white"/>
</clipPath>
</defs>
</svg>
