<svg width="380" height="82" viewBox="0 0 380 82" fill="none" xmlns="http://www.w3.org/2000/svg">
<g filter="url(#filter0_dd_112_2377)">
<rect x="16" y="16" width="48" height="48" rx="8" fill="url(#paint0_radial_112_2377)"/>
<path d="M39.9998 39.9999C40.7362 39.9999 41.3332 39.403 41.3332 38.6666C41.3332 37.9302 40.7362 37.3333 39.9998 37.3333C39.2635 37.3333 38.6665 37.9302 38.6665 38.6666C38.6665 39.403 39.2635 39.9999 39.9998 39.9999Z" stroke="#E1F5FA" stroke-width="2.66667" stroke-linecap="round" stroke-linejoin="round"/>
<path d="M46.7064 48.6133C48.8397 47.1746 50.454 45.0883 51.3111 42.6622C52.1683 40.2361 52.223 37.5987 51.4671 35.1392C50.7111 32.6797 49.1847 30.5282 47.1129 29.0023C45.0411 27.4765 42.5337 26.6569 39.9607 26.6646C37.3876 26.6723 34.8852 27.5069 32.8225 29.0451C30.7599 30.5834 29.2464 32.7439 28.5052 35.2079C27.764 37.6719 27.8345 40.3089 28.7062 42.7298C29.5779 45.1508 31.2046 47.2274 33.3464 48.6533" stroke="#E1F5FA" stroke-width="2.66667" stroke-linecap="round" stroke-linejoin="round"/>
<path d="M45.413 42.5466C46.1369 41.539 46.5652 40.3494 46.6498 39.1116C46.7345 37.8739 46.472 36.637 45.892 35.5403C45.312 34.4435 44.4375 33.5304 43.3668 32.9036C42.2961 32.2768 41.0717 31.9612 39.8315 31.9923C38.5912 32.0235 37.3842 32.4001 36.3463 33.0798C35.3084 33.7595 34.4808 34.7153 33.9565 35.8398C33.4322 36.9643 33.2321 38.2127 33.3787 39.4447C33.5253 40.6766 34.0128 41.8433 34.7863 42.8133" stroke="#E1F5FA" stroke-width="2.66667" stroke-linecap="round" stroke-linejoin="round"/>
<path d="M38.8131 46.6667C38.7875 46.496 38.799 46.3217 38.8468 46.1558C38.8947 45.9899 38.9777 45.8363 39.0904 45.7054C39.203 45.5746 39.3426 45.4696 39.4996 45.3976C39.6565 45.3256 39.8271 45.2883 39.9998 45.2883C40.1725 45.2883 40.3431 45.3256 40.5001 45.3976C40.657 45.4696 40.7966 45.5746 40.9092 45.7054C41.0219 45.8363 41.105 45.9899 41.1528 46.1558C41.2007 46.3217 41.2121 46.496 41.1865 46.6667L40.4931 52.8934C40.4931 53.0242 40.4412 53.1497 40.3486 53.2422C40.2561 53.3347 40.1306 53.3867 39.9998 53.3867C39.869 53.3867 39.7435 53.3347 39.651 53.2422C39.5584 53.1497 39.5065 53.0242 39.5065 52.8934L38.8131 46.6534V46.6667Z" stroke="#E1F5FA" stroke-width="2.66667" stroke-linecap="round" stroke-linejoin="round"/>
</g>
<path d="M83.594 30.058C83.594 29.1047 83.77 28.1733 84.122 27.264C84.474 26.34 84.9873 25.504 85.662 24.756C86.3367 24.008 87.158 23.414 88.126 22.974C89.094 22.5193 90.194 22.292 91.426 22.292C92.8927 22.292 94.1613 22.6073 95.232 23.238C96.3173 23.8687 97.124 24.69 97.652 25.702L94.88 27.638C94.6453 27.0807 94.33 26.648 93.934 26.34C93.5527 26.032 93.1273 25.8193 92.658 25.702C92.2033 25.57 91.7633 25.504 91.338 25.504C90.6487 25.504 90.0473 25.6433 89.534 25.922C89.0207 26.186 88.5953 26.5453 88.258 27C87.9207 27.4547 87.6713 27.9607 87.51 28.518C87.3487 29.0753 87.268 29.6327 87.268 30.19C87.268 30.806 87.3633 31.4 87.554 31.972C87.7447 32.544 88.016 33.05 88.368 33.49C88.7347 33.93 89.1747 34.282 89.688 34.546C90.2013 34.7953 90.766 34.92 91.382 34.92C91.822 34.92 92.2693 34.8467 92.724 34.7C93.1787 34.5533 93.5967 34.326 93.978 34.018C94.374 33.6953 94.6747 33.2773 94.88 32.764L97.828 34.502C97.52 35.2647 97.014 35.9173 96.31 36.46C95.606 37.0027 94.8067 37.4207 93.912 37.714C93.032 37.9927 92.1593 38.132 91.294 38.132C90.1647 38.132 89.1233 37.9047 88.17 37.45C87.2313 36.9807 86.4173 36.3647 85.728 35.602C85.0533 34.8247 84.5253 33.9593 84.144 33.006C83.7773 32.038 83.594 31.0553 83.594 30.058ZM98.6305 34.546C98.6305 33.7833 98.8432 33.116 99.2685 32.544C99.6938 31.972 100.28 31.5247 101.028 31.202C101.776 30.8647 102.634 30.696 103.602 30.696C104.072 30.696 104.534 30.74 104.988 30.828C105.443 30.9013 105.839 31.0113 106.176 31.158V30.652C106.176 30.0213 105.986 29.5373 105.604 29.2C105.223 28.8627 104.644 28.694 103.866 28.694C103.221 28.694 102.612 28.804 102.04 29.024C101.483 29.244 100.889 29.5593 100.258 29.97L99.2025 27.726C99.9652 27.2273 100.757 26.8533 101.578 26.604C102.414 26.3547 103.294 26.23 104.218 26.23C105.949 26.23 107.291 26.648 108.244 27.484C109.212 28.3053 109.696 29.5007 109.696 31.07V34.084C109.696 34.436 109.748 34.6853 109.85 34.832C109.968 34.964 110.166 35.0447 110.444 35.074V38C110.151 38.0587 109.872 38.1027 109.608 38.132C109.359 38.1613 109.139 38.176 108.948 38.176C108.288 38.176 107.782 38.044 107.43 37.78C107.093 37.516 106.88 37.1567 106.792 36.702L106.726 36.196C106.213 36.856 105.597 37.362 104.878 37.714C104.174 38.0513 103.434 38.22 102.656 38.22C101.894 38.22 101.204 38.0587 100.588 37.736C99.9872 37.4133 99.5105 36.9733 99.1585 36.416C98.8065 35.8587 98.6305 35.2353 98.6305 34.546ZM105.626 34.986C105.788 34.854 105.92 34.7073 106.022 34.546C106.125 34.3847 106.176 34.2307 106.176 34.084V33.05C105.883 32.9327 105.553 32.8447 105.186 32.786C104.834 32.7127 104.504 32.676 104.196 32.676C103.551 32.676 103.016 32.8227 102.59 33.116C102.165 33.3947 101.952 33.7687 101.952 34.238C101.952 34.502 102.026 34.744 102.172 34.964C102.319 35.184 102.517 35.36 102.766 35.492C103.03 35.624 103.338 35.69 103.69 35.69C104.042 35.69 104.394 35.624 104.746 35.492C105.098 35.36 105.392 35.1913 105.626 34.986ZM116.669 38.22C115.686 38.22 114.726 38.0587 113.787 37.736C112.848 37.4133 112.056 36.9367 111.411 36.306L112.621 34.084C113.325 34.5973 114.007 34.986 114.667 35.25C115.342 35.514 115.972 35.646 116.559 35.646C117.014 35.646 117.366 35.5727 117.615 35.426C117.864 35.2793 117.989 35.052 117.989 34.744C117.989 34.524 117.916 34.3553 117.769 34.238C117.622 34.106 117.395 33.9887 117.087 33.886C116.794 33.7833 116.427 33.6733 115.987 33.556C115.107 33.2627 114.374 32.9767 113.787 32.698C113.2 32.4193 112.76 32.082 112.467 31.686C112.174 31.2753 112.027 30.7473 112.027 30.102C112.027 29.3247 112.218 28.65 112.599 28.078C112.995 27.4913 113.552 27.0367 114.271 26.714C114.99 26.3913 115.848 26.23 116.845 26.23C117.637 26.23 118.407 26.3547 119.155 26.604C119.918 26.8533 120.629 27.2713 121.289 27.858L119.925 30.058C119.265 29.6033 118.678 29.2733 118.165 29.068C117.652 28.8627 117.153 28.76 116.669 28.76C116.42 28.76 116.192 28.7893 115.987 28.848C115.782 28.9067 115.613 29.0093 115.481 29.156C115.364 29.288 115.305 29.464 115.305 29.684C115.305 29.904 115.364 30.08 115.481 30.212C115.613 30.344 115.811 30.4613 116.075 30.564C116.354 30.652 116.698 30.762 117.109 30.894C118.062 31.1727 118.854 31.4587 119.485 31.752C120.116 32.0307 120.585 32.3827 120.893 32.808C121.216 33.2187 121.377 33.7687 121.377 34.458C121.377 35.6313 120.952 36.5553 120.101 37.23C119.265 37.89 118.121 38.22 116.669 38.22ZM130.577 37.384C130.254 37.516 129.895 37.648 129.499 37.78C129.117 37.912 128.714 38.0147 128.289 38.088C127.863 38.176 127.445 38.22 127.035 38.22C126.448 38.22 125.905 38.1247 125.407 37.934C124.923 37.7287 124.534 37.3987 124.241 36.944C123.962 36.4893 123.823 35.888 123.823 35.14V29.112H122.349V26.45H123.823V22.776H127.343V26.45H129.697V29.112H127.343V33.93C127.343 34.3113 127.438 34.59 127.629 34.766C127.819 34.9273 128.061 35.008 128.355 35.008C128.604 35.008 128.868 34.964 129.147 34.876C129.44 34.788 129.689 34.6927 129.895 34.59L130.577 37.384Z" fill="#F1F5F9"/>
<path d="M90.552 55.744L88.752 51.08C88.6987 50.9413 88.6427 50.7813 88.584 50.6C88.5253 50.4133 88.4693 50.216 88.416 50.008C88.304 50.44 88.1893 50.8 88.072 51.088L86.272 55.744H90.552ZM93.784 60H92.584C92.4453 60 92.3333 59.9653 92.248 59.896C92.1627 59.8267 92.0987 59.7387 92.056 59.632L90.984 56.864H85.84L84.768 59.632C84.736 59.728 84.6747 59.8133 84.584 59.888C84.4933 59.9627 84.3813 60 84.248 60H83.048L87.632 48.536H89.2L93.784 60ZM99.9506 58.048C100.212 58.4 100.497 58.648 100.807 58.792C101.116 58.936 101.463 59.008 101.847 59.008C102.604 59.008 103.185 58.7387 103.591 58.2C103.996 57.6613 104.199 56.8933 104.199 55.896C104.199 55.368 104.151 54.9147 104.055 54.536C103.964 54.1573 103.831 53.848 103.655 53.608C103.479 53.3627 103.263 53.184 103.007 53.072C102.751 52.96 102.46 52.904 102.135 52.904C101.671 52.904 101.263 53.0107 100.911 53.224C100.564 53.4373 100.244 53.7387 99.9506 54.128V58.048ZM99.8786 53.152C100.22 52.7307 100.615 52.392 101.063 52.136C101.511 51.88 102.023 51.752 102.599 51.752C103.068 51.752 103.492 51.8427 103.871 52.024C104.249 52.2 104.572 52.464 104.839 52.816C105.105 53.1627 105.311 53.5947 105.455 54.112C105.599 54.6293 105.671 55.224 105.671 55.896C105.671 56.4933 105.591 57.0507 105.431 57.568C105.271 58.08 105.039 58.5253 104.735 58.904C104.436 59.2773 104.068 59.5733 103.631 59.792C103.199 60.0053 102.711 60.112 102.167 60.112C101.671 60.112 101.244 60.0293 100.887 59.864C100.535 59.6933 100.223 59.4587 99.9506 59.16V62.744H98.5186V51.896H99.3746C99.5773 51.896 99.7026 51.9947 99.7506 52.192L99.8786 53.152ZM110.903 51.768C111.495 51.768 112.029 51.8667 112.503 52.064C112.978 52.2613 113.383 52.5413 113.719 52.904C114.055 53.2667 114.311 53.7067 114.487 54.224C114.669 54.736 114.759 55.3093 114.759 55.944C114.759 56.584 114.669 57.16 114.487 57.672C114.311 58.184 114.055 58.6213 113.719 58.984C113.383 59.3467 112.978 59.6267 112.503 59.824C112.029 60.016 111.495 60.112 110.903 60.112C110.306 60.112 109.767 60.016 109.287 59.824C108.813 59.6267 108.407 59.3467 108.071 58.984C107.735 58.6213 107.477 58.184 107.295 57.672C107.119 57.16 107.031 56.584 107.031 55.944C107.031 55.3093 107.119 54.736 107.295 54.224C107.477 53.7067 107.735 53.2667 108.071 52.904C108.407 52.5413 108.813 52.2613 109.287 52.064C109.767 51.8667 110.306 51.768 110.903 51.768ZM110.903 59C111.703 59 112.301 58.7333 112.695 58.2C113.09 57.6613 113.287 56.912 113.287 55.952C113.287 54.9867 113.09 54.2347 112.695 53.696C112.301 53.1573 111.703 52.888 110.903 52.888C110.498 52.888 110.143 52.9573 109.839 53.096C109.541 53.2347 109.29 53.4347 109.087 53.696C108.89 53.9573 108.741 54.28 108.639 54.664C108.543 55.0427 108.495 55.472 108.495 55.952C108.495 56.912 108.693 57.6613 109.087 58.2C109.487 58.7333 110.093 59 110.903 59ZM121.846 53.824C121.579 53.4667 121.291 53.2187 120.982 53.08C120.672 52.936 120.326 52.864 119.942 52.864C119.19 52.864 118.611 53.1333 118.206 53.672C117.8 54.2107 117.598 54.9787 117.598 55.976C117.598 56.504 117.643 56.9573 117.734 57.336C117.824 57.7093 117.958 58.0187 118.134 58.264C118.31 58.504 118.526 58.68 118.782 58.792C119.038 58.904 119.328 58.96 119.654 58.96C120.123 58.96 120.531 58.8533 120.878 58.64C121.23 58.4267 121.552 58.1253 121.846 57.736V53.824ZM123.27 48.216V60H122.422C122.219 60 122.091 59.9013 122.038 59.704L121.91 58.72C121.563 59.136 121.168 59.472 120.726 59.728C120.283 59.984 119.771 60.112 119.19 60.112C118.726 60.112 118.304 60.024 117.926 59.848C117.547 59.6667 117.224 59.4027 116.958 59.056C116.691 58.7093 116.486 58.2773 116.342 57.76C116.198 57.2427 116.126 56.648 116.126 55.976C116.126 55.3787 116.206 54.824 116.366 54.312C116.526 53.7947 116.755 53.3467 117.054 52.968C117.352 52.5893 117.718 52.2933 118.15 52.08C118.587 51.8613 119.078 51.752 119.622 51.752C120.118 51.752 120.542 51.8373 120.894 52.008C121.251 52.1733 121.568 52.4053 121.846 52.704V48.216H123.27ZM131.159 53.336C131.116 53.3947 131.073 53.44 131.031 53.472C130.988 53.504 130.929 53.52 130.855 53.52C130.775 53.52 130.687 53.488 130.591 53.424C130.495 53.3547 130.375 53.28 130.231 53.2C130.092 53.12 129.919 53.048 129.711 52.984C129.508 52.9147 129.257 52.88 128.959 52.88C128.559 52.88 128.207 52.952 127.903 53.096C127.599 53.2347 127.343 53.4373 127.135 53.704C126.932 53.9707 126.777 54.2933 126.671 54.672C126.569 55.0507 126.519 55.4747 126.519 55.944C126.519 56.4347 126.575 56.872 126.687 57.256C126.799 57.6347 126.956 57.9547 127.159 58.216C127.367 58.472 127.615 58.6693 127.903 58.808C128.196 58.9413 128.524 59.008 128.887 59.008C129.233 59.008 129.519 58.968 129.743 58.888C129.967 58.8027 130.151 58.7093 130.295 58.608C130.444 58.5067 130.567 58.416 130.663 58.336C130.764 58.2507 130.863 58.208 130.959 58.208C131.076 58.208 131.167 58.2533 131.231 58.344L131.631 58.864C131.455 59.0827 131.255 59.2693 131.031 59.424C130.807 59.5787 130.564 59.7093 130.303 59.816C130.047 59.9173 129.777 59.992 129.495 60.04C129.212 60.088 128.924 60.112 128.631 60.112C128.124 60.112 127.652 60.0187 127.215 59.832C126.783 59.6453 126.407 59.376 126.087 59.024C125.767 58.6667 125.516 58.2293 125.335 57.712C125.153 57.1947 125.063 56.6053 125.063 55.944C125.063 55.3413 125.145 54.784 125.311 54.272C125.481 53.76 125.727 53.32 126.047 52.952C126.372 52.5787 126.769 52.288 127.239 52.08C127.713 51.872 128.257 51.768 128.871 51.768C129.441 51.768 129.943 51.8613 130.375 52.048C130.812 52.2293 131.199 52.488 131.535 52.824L131.159 53.336ZM137.551 56.352C136.895 56.3733 136.335 56.4267 135.871 56.512C135.413 56.592 135.037 56.6987 134.743 56.832C134.455 56.9653 134.245 57.1227 134.111 57.304C133.983 57.4853 133.919 57.688 133.919 57.912C133.919 58.1253 133.954 58.3093 134.023 58.464C134.093 58.6187 134.186 58.7467 134.303 58.848C134.426 58.944 134.567 59.016 134.727 59.064C134.893 59.1067 135.069 59.128 135.255 59.128C135.506 59.128 135.735 59.104 135.943 59.056C136.151 59.0027 136.346 58.928 136.527 58.832C136.714 58.736 136.89 58.6213 137.055 58.488C137.226 58.3547 137.391 58.2027 137.551 58.032V56.352ZM132.951 53.04C133.399 52.608 133.882 52.2853 134.399 52.072C134.917 51.8587 135.49 51.752 136.119 51.752C136.573 51.752 136.975 51.8267 137.327 51.976C137.679 52.1253 137.975 52.3333 138.215 52.6C138.455 52.8667 138.637 53.1893 138.759 53.568C138.882 53.9467 138.943 54.3627 138.943 54.816V60H138.311C138.173 60 138.066 59.9787 137.991 59.936C137.917 59.888 137.858 59.7973 137.815 59.664L137.655 58.896C137.442 59.0933 137.234 59.2693 137.031 59.424C136.829 59.5733 136.615 59.7013 136.391 59.808C136.167 59.9093 135.927 59.9867 135.671 60.04C135.421 60.0987 135.141 60.128 134.831 60.128C134.517 60.128 134.221 60.0853 133.943 60C133.666 59.9093 133.423 59.776 133.215 59.6C133.013 59.424 132.85 59.2027 132.727 58.936C132.61 58.664 132.551 58.344 132.551 57.976C132.551 57.656 132.639 57.3493 132.815 57.056C132.991 56.7573 133.277 56.4933 133.671 56.264C134.066 56.0347 134.581 55.848 135.215 55.704C135.85 55.5547 136.629 55.4693 137.551 55.448V54.816C137.551 54.1867 137.415 53.712 137.143 53.392C136.871 53.0667 136.474 52.904 135.951 52.904C135.599 52.904 135.303 52.9493 135.063 53.04C134.829 53.1253 134.623 53.224 134.447 53.336C134.277 53.4427 134.127 53.5413 133.999 53.632C133.877 53.7173 133.754 53.76 133.631 53.76C133.535 53.76 133.453 53.736 133.383 53.688C133.314 53.6347 133.255 53.5707 133.207 53.496L132.951 53.04ZM145.832 53.232C145.768 53.3493 145.67 53.408 145.536 53.408C145.456 53.408 145.366 53.3787 145.264 53.32C145.163 53.2613 145.038 53.1973 144.888 53.128C144.744 53.0533 144.571 52.9867 144.368 52.928C144.166 52.864 143.926 52.832 143.648 52.832C143.408 52.832 143.192 52.864 143 52.928C142.808 52.9867 142.643 53.0693 142.504 53.176C142.371 53.2827 142.267 53.408 142.192 53.552C142.123 53.6907 142.088 53.8427 142.088 54.008C142.088 54.216 142.147 54.3893 142.264 54.528C142.387 54.6667 142.547 54.7867 142.744 54.888C142.942 54.9893 143.166 55.08 143.416 55.16C143.667 55.2347 143.923 55.3173 144.184 55.408C144.451 55.4933 144.71 55.5893 144.96 55.696C145.211 55.8027 145.435 55.936 145.632 56.096C145.83 56.256 145.987 56.4533 146.104 56.688C146.227 56.9173 146.288 57.1947 146.288 57.52C146.288 57.8933 146.222 58.24 146.088 58.56C145.955 58.8747 145.758 59.1493 145.496 59.384C145.235 59.6133 144.915 59.7947 144.536 59.928C144.158 60.0613 143.72 60.128 143.224 60.128C142.659 60.128 142.147 60.0373 141.688 59.856C141.23 59.6693 140.84 59.432 140.52 59.144L140.856 58.6C140.899 58.5307 140.95 58.4773 141.008 58.44C141.067 58.4027 141.142 58.384 141.232 58.384C141.328 58.384 141.43 58.4213 141.536 58.496C141.643 58.5707 141.771 58.6533 141.92 58.744C142.075 58.8347 142.262 58.9173 142.48 58.992C142.699 59.0667 142.971 59.104 143.296 59.104C143.574 59.104 143.816 59.0693 144.024 59C144.232 58.9253 144.406 58.8267 144.544 58.704C144.683 58.5813 144.784 58.44 144.848 58.28C144.918 58.12 144.952 57.9493 144.952 57.768C144.952 57.544 144.891 57.36 144.768 57.216C144.651 57.0667 144.494 56.9413 144.296 56.84C144.099 56.7333 143.872 56.6427 143.616 56.568C143.366 56.488 143.107 56.4053 142.84 56.32C142.579 56.2347 142.32 56.1387 142.064 56.032C141.814 55.92 141.59 55.7813 141.392 55.616C141.195 55.4507 141.035 55.248 140.912 55.008C140.795 54.7627 140.736 54.4667 140.736 54.12C140.736 53.8107 140.8 53.5147 140.928 53.232C141.056 52.944 141.243 52.6933 141.488 52.48C141.734 52.2613 142.035 52.088 142.392 51.96C142.75 51.832 143.158 51.768 143.616 51.768C144.15 51.768 144.627 51.8533 145.048 52.024C145.475 52.1893 145.843 52.4187 146.152 52.712L145.832 53.232ZM150.522 60.128C149.882 60.128 149.389 59.9493 149.042 59.592C148.701 59.2347 148.53 58.72 148.53 58.048V53.088H147.554C147.469 53.088 147.397 53.064 147.338 53.016C147.28 52.9627 147.25 52.8827 147.25 52.776V52.208L148.578 52.04L148.906 49.536C148.922 49.456 148.957 49.392 149.01 49.344C149.069 49.2907 149.144 49.264 149.234 49.264H149.954V52.056H152.298V53.088H149.954V57.952C149.954 58.2933 150.037 58.5467 150.202 58.712C150.368 58.8773 150.581 58.96 150.842 58.96C150.992 58.96 151.12 58.9413 151.226 58.904C151.338 58.8613 151.434 58.816 151.514 58.768C151.594 58.72 151.661 58.6773 151.714 58.64C151.773 58.5973 151.824 58.576 151.866 58.576C151.941 58.576 152.008 58.6213 152.066 58.712L152.482 59.392C152.237 59.6213 151.941 59.8027 151.594 59.936C151.248 60.064 150.89 60.128 150.522 60.128ZM159.334 48.216V60H157.91V48.216H159.334ZM163.148 51.896V60H161.724V51.896H163.148ZM163.452 49.352C163.452 49.4907 163.422 49.6213 163.364 49.744C163.31 49.8613 163.236 49.968 163.14 50.064C163.049 50.1547 162.94 50.2267 162.812 50.28C162.689 50.3333 162.558 50.36 162.42 50.36C162.281 50.36 162.15 50.3333 162.028 50.28C161.91 50.2267 161.806 50.1547 161.716 50.064C161.625 49.968 161.553 49.8613 161.5 49.744C161.446 49.6213 161.42 49.4907 161.42 49.352C161.42 49.2133 161.446 49.0827 161.5 48.96C161.553 48.832 161.625 48.7227 161.716 48.632C161.806 48.536 161.91 48.4613 162.028 48.408C162.15 48.3547 162.281 48.328 162.42 48.328C162.558 48.328 162.689 48.3547 162.812 48.408C162.94 48.4613 163.049 48.536 163.14 48.632C163.236 48.7227 163.31 48.832 163.364 48.96C163.422 49.0827 163.452 49.2133 163.452 49.352ZM170.207 53.232C170.143 53.3493 170.045 53.408 169.911 53.408C169.831 53.408 169.741 53.3787 169.639 53.32C169.538 53.2613 169.413 53.1973 169.263 53.128C169.119 53.0533 168.946 52.9867 168.743 52.928C168.541 52.864 168.301 52.832 168.023 52.832C167.783 52.832 167.567 52.864 167.375 52.928C167.183 52.9867 167.018 53.0693 166.879 53.176C166.746 53.2827 166.642 53.408 166.567 53.552C166.498 53.6907 166.463 53.8427 166.463 54.008C166.463 54.216 166.522 54.3893 166.639 54.528C166.762 54.6667 166.922 54.7867 167.119 54.888C167.317 54.9893 167.541 55.08 167.791 55.16C168.042 55.2347 168.298 55.3173 168.559 55.408C168.826 55.4933 169.085 55.5893 169.335 55.696C169.586 55.8027 169.81 55.936 170.007 56.096C170.205 56.256 170.362 56.4533 170.479 56.688C170.602 56.9173 170.663 57.1947 170.663 57.52C170.663 57.8933 170.597 58.24 170.463 58.56C170.33 58.8747 170.133 59.1493 169.871 59.384C169.61 59.6133 169.29 59.7947 168.911 59.928C168.533 60.0613 168.095 60.128 167.599 60.128C167.034 60.128 166.522 60.0373 166.063 59.856C165.605 59.6693 165.215 59.432 164.895 59.144L165.231 58.6C165.274 58.5307 165.325 58.4773 165.383 58.44C165.442 58.4027 165.517 58.384 165.607 58.384C165.703 58.384 165.805 58.4213 165.911 58.496C166.018 58.5707 166.146 58.6533 166.295 58.744C166.45 58.8347 166.637 58.9173 166.855 58.992C167.074 59.0667 167.346 59.104 167.671 59.104C167.949 59.104 168.191 59.0693 168.399 59C168.607 58.9253 168.781 58.8267 168.919 58.704C169.058 58.5813 169.159 58.44 169.223 58.28C169.293 58.12 169.327 57.9493 169.327 57.768C169.327 57.544 169.266 57.36 169.143 57.216C169.026 57.0667 168.869 56.9413 168.671 56.84C168.474 56.7333 168.247 56.6427 167.991 56.568C167.741 56.488 167.482 56.4053 167.215 56.32C166.954 56.2347 166.695 56.1387 166.439 56.032C166.189 55.92 165.965 55.7813 165.767 55.616C165.57 55.4507 165.41 55.248 165.287 55.008C165.17 54.7627 165.111 54.4667 165.111 54.12C165.111 53.8107 165.175 53.5147 165.303 53.232C165.431 52.944 165.618 52.6933 165.863 52.48C166.109 52.2613 166.41 52.088 166.767 51.96C167.125 51.832 167.533 51.768 167.991 51.768C168.525 51.768 169.002 51.8533 169.423 52.024C169.85 52.1893 170.218 52.4187 170.527 52.712L170.207 53.232ZM174.897 60.128C174.257 60.128 173.764 59.9493 173.417 59.592C173.076 59.2347 172.905 58.72 172.905 58.048V53.088H171.929C171.844 53.088 171.772 53.064 171.713 53.016C171.655 52.9627 171.625 52.8827 171.625 52.776V52.208L172.953 52.04L173.281 49.536C173.297 49.456 173.332 49.392 173.385 49.344C173.444 49.2907 173.519 49.264 173.609 49.264H174.329V52.056H176.673V53.088H174.329V57.952C174.329 58.2933 174.412 58.5467 174.577 58.712C174.743 58.8773 174.956 58.96 175.217 58.96C175.367 58.96 175.495 58.9413 175.601 58.904C175.713 58.8613 175.809 58.816 175.889 58.768C175.969 58.72 176.036 58.6773 176.089 58.64C176.148 58.5973 176.199 58.576 176.241 58.576C176.316 58.576 176.383 58.6213 176.441 58.712L176.857 59.392C176.612 59.6213 176.316 59.8027 175.969 59.936C175.623 60.064 175.265 60.128 174.897 60.128ZM183.521 55.064C183.521 54.7333 183.473 54.432 183.377 54.16C183.286 53.8827 183.15 53.6453 182.969 53.448C182.793 53.2453 182.577 53.0907 182.321 52.984C182.065 52.872 181.774 52.816 181.449 52.816C180.766 52.816 180.225 53.016 179.825 53.416C179.43 53.8107 179.185 54.36 179.089 55.064H183.521ZM184.673 58.864C184.497 59.0773 184.286 59.264 184.041 59.424C183.795 59.5787 183.531 59.7067 183.249 59.808C182.971 59.9093 182.683 59.984 182.385 60.032C182.086 60.0853 181.79 60.112 181.497 60.112C180.937 60.112 180.419 60.0187 179.945 59.832C179.475 59.64 179.067 59.3627 178.721 59C178.379 58.632 178.113 58.1787 177.921 57.64C177.729 57.1013 177.633 56.4827 177.633 55.784C177.633 55.2187 177.718 54.6907 177.889 54.2C178.065 53.7093 178.315 53.2853 178.641 52.928C178.966 52.5653 179.363 52.2827 179.833 52.08C180.302 51.872 180.83 51.768 181.417 51.768C181.902 51.768 182.35 51.8507 182.761 52.016C183.177 52.176 183.534 52.4107 183.833 52.72C184.137 53.024 184.374 53.4027 184.545 53.856C184.715 54.304 184.801 54.816 184.801 55.392C184.801 55.616 184.777 55.7653 184.729 55.84C184.681 55.9147 184.59 55.952 184.457 55.952H179.041C179.057 56.464 179.126 56.9093 179.249 57.288C179.377 57.6667 179.553 57.984 179.777 58.24C180.001 58.4907 180.267 58.68 180.577 58.808C180.886 58.9307 181.233 58.992 181.617 58.992C181.974 58.992 182.281 58.952 182.537 58.872C182.798 58.7867 183.022 58.696 183.209 58.6C183.395 58.504 183.55 58.416 183.673 58.336C183.801 58.2507 183.91 58.208 184.001 58.208C184.118 58.208 184.209 58.2533 184.273 58.344L184.673 58.864ZM187.894 53.072C188.07 52.8747 188.257 52.696 188.454 52.536C188.651 52.376 188.859 52.24 189.078 52.128C189.302 52.0107 189.537 51.9227 189.782 51.864C190.033 51.8 190.302 51.768 190.59 51.768C191.033 51.768 191.422 51.8427 191.758 51.992C192.099 52.136 192.382 52.344 192.606 52.616C192.835 52.8827 193.009 53.2053 193.126 53.584C193.243 53.9627 193.302 54.3813 193.302 54.84V60H191.87V54.84C191.87 54.2267 191.729 53.752 191.446 53.416C191.169 53.0747 190.745 52.904 190.174 52.904C189.753 52.904 189.358 53.0053 188.99 53.208C188.627 53.4107 188.291 53.6853 187.982 54.032V60H186.55V51.896H187.406C187.609 51.896 187.734 51.9947 187.782 52.192L187.894 53.072ZM196.976 51.896V60H195.552V51.896H196.976ZM197.28 49.352C197.28 49.4907 197.25 49.6213 197.192 49.744C197.138 49.8613 197.064 49.968 196.968 50.064C196.877 50.1547 196.768 50.2267 196.64 50.28C196.517 50.3333 196.386 50.36 196.248 50.36C196.109 50.36 195.978 50.3333 195.856 50.28C195.738 50.2267 195.634 50.1547 195.544 50.064C195.453 49.968 195.381 49.8613 195.328 49.744C195.274 49.6213 195.248 49.4907 195.248 49.352C195.248 49.2133 195.274 49.0827 195.328 48.96C195.381 48.832 195.453 48.7227 195.544 48.632C195.634 48.536 195.738 48.4613 195.856 48.408C195.978 48.3547 196.109 48.328 196.248 48.328C196.386 48.328 196.517 48.3547 196.64 48.408C196.768 48.4613 196.877 48.536 196.968 48.632C197.064 48.7227 197.138 48.832 197.192 48.96C197.25 49.0827 197.28 49.2133 197.28 49.352ZM200.66 53.072C200.836 52.8747 201.022 52.696 201.22 52.536C201.417 52.376 201.625 52.24 201.844 52.128C202.068 52.0107 202.302 51.9227 202.548 51.864C202.798 51.8 203.068 51.768 203.356 51.768C203.798 51.768 204.188 51.8427 204.524 51.992C204.865 52.136 205.148 52.344 205.372 52.616C205.601 52.8827 205.774 53.2053 205.892 53.584C206.009 53.9627 206.068 54.3813 206.068 54.84V60H204.636V54.84C204.636 54.2267 204.494 53.752 204.212 53.416C203.934 53.0747 203.51 52.904 202.94 52.904C202.518 52.904 202.124 53.0053 201.756 53.208C201.393 53.4107 201.057 53.6853 200.748 54.032V60H199.316V51.896H200.172C200.374 51.896 200.5 51.9947 200.548 52.192L200.66 53.072ZM211.061 56.04C211.349 56.04 211.603 56 211.821 55.92C212.04 55.84 212.224 55.728 212.373 55.584C212.523 55.44 212.635 55.2693 212.709 55.072C212.784 54.8693 212.821 54.648 212.821 54.408C212.821 53.912 212.669 53.5173 212.365 53.224C212.067 52.9307 211.632 52.784 211.061 52.784C210.485 52.784 210.045 52.9307 209.741 53.224C209.443 53.5173 209.293 53.912 209.293 54.408C209.293 54.648 209.331 54.8693 209.405 55.072C209.485 55.2693 209.6 55.44 209.749 55.584C209.899 55.728 210.083 55.84 210.301 55.92C210.52 56 210.773 56.04 211.061 56.04ZM213.629 60.44C213.629 60.2427 213.573 60.0827 213.461 59.96C213.349 59.8373 213.197 59.7413 213.005 59.672C212.819 59.6027 212.6 59.5547 212.349 59.528C212.099 59.496 211.832 59.472 211.549 59.456C211.272 59.44 210.989 59.424 210.701 59.408C210.413 59.392 210.136 59.3653 209.869 59.328C209.571 59.4667 209.325 59.6427 209.133 59.856C208.947 60.064 208.853 60.3093 208.853 60.592C208.853 60.7733 208.899 60.9413 208.989 61.096C209.085 61.256 209.229 61.392 209.421 61.504C209.613 61.6213 209.853 61.712 210.141 61.776C210.435 61.8453 210.779 61.88 211.173 61.88C211.557 61.88 211.901 61.8453 212.205 61.776C212.509 61.7067 212.765 61.608 212.973 61.48C213.187 61.352 213.349 61.2 213.461 61.024C213.573 60.848 213.629 60.6533 213.629 60.44ZM215.077 52.216V52.744C215.077 52.92 214.965 53.032 214.741 53.08L213.821 53.2C214.003 53.552 214.093 53.9413 214.093 54.368C214.093 54.7627 214.016 55.1227 213.861 55.448C213.712 55.768 213.504 56.0427 213.237 56.272C212.971 56.5013 212.651 56.6773 212.277 56.8C211.904 56.9227 211.499 56.984 211.061 56.984C210.683 56.984 210.325 56.9387 209.989 56.848C209.819 56.9547 209.688 57.0693 209.597 57.192C209.507 57.3093 209.461 57.4293 209.461 57.552C209.461 57.744 209.539 57.8907 209.693 57.992C209.853 58.088 210.061 58.1573 210.317 58.2C210.573 58.2427 210.864 58.2693 211.189 58.28C211.52 58.2907 211.856 58.3093 212.197 58.336C212.544 58.3573 212.88 58.3973 213.205 58.456C213.536 58.5147 213.829 58.6107 214.085 58.744C214.341 58.8773 214.547 59.0613 214.701 59.296C214.861 59.5307 214.941 59.8347 214.941 60.208C214.941 60.5547 214.853 60.8907 214.677 61.216C214.507 61.5413 214.259 61.8293 213.933 62.08C213.608 62.336 213.208 62.5387 212.733 62.688C212.264 62.8427 211.733 62.92 211.141 62.92C210.549 62.92 210.032 62.8613 209.589 62.744C209.147 62.6267 208.779 62.4693 208.485 62.272C208.192 62.0747 207.971 61.8453 207.821 61.584C207.677 61.328 207.605 61.0587 207.605 60.776C207.605 60.376 207.731 60.0373 207.981 59.76C208.232 59.4827 208.576 59.2613 209.013 59.096C208.773 58.9893 208.581 58.848 208.437 58.672C208.299 58.4907 208.229 58.248 208.229 57.944C208.229 57.8267 208.251 57.7067 208.293 57.584C208.336 57.456 208.4 57.3307 208.485 57.208C208.576 57.08 208.685 56.96 208.813 56.848C208.941 56.736 209.091 56.6373 209.261 56.552C208.861 56.328 208.549 56.032 208.325 55.664C208.101 55.2907 207.989 54.8587 207.989 54.368C207.989 53.9733 208.064 53.616 208.213 53.296C208.368 52.9707 208.581 52.696 208.853 52.472C209.125 52.2427 209.448 52.0667 209.821 51.944C210.2 51.8213 210.613 51.76 211.061 51.76C211.413 51.76 211.741 51.8 212.045 51.88C212.349 51.9547 212.627 52.0667 212.877 52.216H215.077ZM222.076 58.048C222.337 58.4 222.622 58.648 222.932 58.792C223.241 58.936 223.588 59.008 223.972 59.008C224.729 59.008 225.31 58.7387 225.716 58.2C226.121 57.6613 226.324 56.8933 226.324 55.896C226.324 55.368 226.276 54.9147 226.18 54.536C226.089 54.1573 225.956 53.848 225.78 53.608C225.604 53.3627 225.388 53.184 225.132 53.072C224.876 52.96 224.585 52.904 224.26 52.904C223.796 52.904 223.388 53.0107 223.036 53.224C222.689 53.4373 222.369 53.7387 222.076 54.128V58.048ZM222.004 53.152C222.345 52.7307 222.74 52.392 223.188 52.136C223.636 51.88 224.148 51.752 224.724 51.752C225.193 51.752 225.617 51.8427 225.996 52.024C226.374 52.2 226.697 52.464 226.964 52.816C227.23 53.1627 227.436 53.5947 227.58 54.112C227.724 54.6293 227.796 55.224 227.796 55.896C227.796 56.4933 227.716 57.0507 227.556 57.568C227.396 58.08 227.164 58.5253 226.86 58.904C226.561 59.2773 226.193 59.5733 225.756 59.792C225.324 60.0053 224.836 60.112 224.292 60.112C223.796 60.112 223.369 60.0293 223.012 59.864C222.66 59.6933 222.348 59.4587 222.076 59.16V62.744H220.644V51.896H221.5C221.702 51.896 221.828 51.9947 221.876 52.192L222.004 53.152ZM230.964 53.52C231.22 52.9653 231.535 52.5333 231.908 52.224C232.282 51.9093 232.738 51.752 233.276 51.752C233.447 51.752 233.61 51.7707 233.764 51.808C233.924 51.8453 234.066 51.904 234.188 51.984L234.084 53.048C234.052 53.1813 233.972 53.248 233.844 53.248C233.77 53.248 233.66 53.232 233.516 53.2C233.372 53.168 233.21 53.152 233.028 53.152C232.772 53.152 232.543 53.1893 232.34 53.264C232.143 53.3387 231.964 53.4507 231.804 53.6C231.65 53.744 231.508 53.9253 231.38 54.144C231.258 54.3573 231.146 54.6027 231.044 54.88V60H229.612V51.896H230.428C230.583 51.896 230.69 51.9253 230.748 51.984C230.807 52.0427 230.847 52.144 230.868 52.288L230.964 53.52ZM238.528 51.768C239.12 51.768 239.654 51.8667 240.128 52.064C240.603 52.2613 241.008 52.5413 241.344 52.904C241.68 53.2667 241.936 53.7067 242.112 54.224C242.294 54.736 242.384 55.3093 242.384 55.944C242.384 56.584 242.294 57.16 242.112 57.672C241.936 58.184 241.68 58.6213 241.344 58.984C241.008 59.3467 240.603 59.6267 240.128 59.824C239.654 60.016 239.12 60.112 238.528 60.112C237.931 60.112 237.392 60.016 236.912 59.824C236.438 59.6267 236.032 59.3467 235.696 58.984C235.36 58.6213 235.102 58.184 234.92 57.672C234.744 57.16 234.656 56.584 234.656 55.944C234.656 55.3093 234.744 54.736 234.92 54.224C235.102 53.7067 235.36 53.2667 235.696 52.904C236.032 52.5413 236.438 52.2613 236.912 52.064C237.392 51.8667 237.931 51.768 238.528 51.768ZM238.528 59C239.328 59 239.926 58.7333 240.32 58.2C240.715 57.6613 240.912 56.912 240.912 55.952C240.912 54.9867 240.715 54.2347 240.32 53.696C239.926 53.1573 239.328 52.888 238.528 52.888C238.123 52.888 237.768 52.9573 237.464 53.096C237.166 53.2347 236.915 53.4347 236.712 53.696C236.515 53.9573 236.366 54.28 236.264 54.664C236.168 55.0427 236.12 55.472 236.12 55.952C236.12 56.912 236.318 57.6613 236.712 58.2C237.112 58.7333 237.718 59 238.528 59ZM246.968 56.04C247.256 56.04 247.509 56 247.728 55.92C247.946 55.84 248.13 55.728 248.28 55.584C248.429 55.44 248.541 55.2693 248.616 55.072C248.69 54.8693 248.728 54.648 248.728 54.408C248.728 53.912 248.576 53.5173 248.272 53.224C247.973 52.9307 247.538 52.784 246.968 52.784C246.392 52.784 245.952 52.9307 245.648 53.224C245.349 53.5173 245.2 53.912 245.2 54.408C245.2 54.648 245.237 54.8693 245.312 55.072C245.392 55.2693 245.506 55.44 245.656 55.584C245.805 55.728 245.989 55.84 246.208 55.92C246.426 56 246.68 56.04 246.968 56.04ZM249.536 60.44C249.536 60.2427 249.48 60.0827 249.368 59.96C249.256 59.8373 249.104 59.7413 248.912 59.672C248.725 59.6027 248.506 59.5547 248.256 59.528C248.005 59.496 247.738 59.472 247.456 59.456C247.178 59.44 246.896 59.424 246.608 59.408C246.32 59.392 246.042 59.3653 245.776 59.328C245.477 59.4667 245.232 59.6427 245.04 59.856C244.853 60.064 244.76 60.3093 244.76 60.592C244.76 60.7733 244.805 60.9413 244.896 61.096C244.992 61.256 245.136 61.392 245.328 61.504C245.52 61.6213 245.76 61.712 246.048 61.776C246.341 61.8453 246.685 61.88 247.08 61.88C247.464 61.88 247.808 61.8453 248.112 61.776C248.416 61.7067 248.672 61.608 248.88 61.48C249.093 61.352 249.256 61.2 249.368 61.024C249.48 60.848 249.536 60.6533 249.536 60.44ZM250.984 52.216V52.744C250.984 52.92 250.872 53.032 250.648 53.08L249.728 53.2C249.909 53.552 250 53.9413 250 54.368C250 54.7627 249.922 55.1227 249.768 55.448C249.618 55.768 249.41 56.0427 249.144 56.272C248.877 56.5013 248.557 56.6773 248.184 56.8C247.81 56.9227 247.405 56.984 246.968 56.984C246.589 56.984 246.232 56.9387 245.896 56.848C245.725 56.9547 245.594 57.0693 245.504 57.192C245.413 57.3093 245.368 57.4293 245.368 57.552C245.368 57.744 245.445 57.8907 245.6 57.992C245.76 58.088 245.968 58.1573 246.224 58.2C246.48 58.2427 246.77 58.2693 247.096 58.28C247.426 58.2907 247.762 58.3093 248.104 58.336C248.45 58.3573 248.786 58.3973 249.112 58.456C249.442 58.5147 249.736 58.6107 249.992 58.744C250.248 58.8773 250.453 59.0613 250.608 59.296C250.768 59.5307 250.848 59.8347 250.848 60.208C250.848 60.5547 250.76 60.8907 250.584 61.216C250.413 61.5413 250.165 61.8293 249.84 62.08C249.514 62.336 249.114 62.5387 248.64 62.688C248.17 62.8427 247.64 62.92 247.048 62.92C246.456 62.92 245.938 62.8613 245.496 62.744C245.053 62.6267 244.685 62.4693 244.392 62.272C244.098 62.0747 243.877 61.8453 243.728 61.584C243.584 61.328 243.512 61.0587 243.512 60.776C243.512 60.376 243.637 60.0373 243.888 59.76C244.138 59.4827 244.482 59.2613 244.92 59.096C244.68 58.9893 244.488 58.848 244.344 58.672C244.205 58.4907 244.136 58.248 244.136 57.944C244.136 57.8267 244.157 57.7067 244.2 57.584C244.242 57.456 244.306 57.3307 244.392 57.208C244.482 57.08 244.592 56.96 244.72 56.848C244.848 56.736 244.997 56.6373 245.168 56.552C244.768 56.328 244.456 56.032 244.232 55.664C244.008 55.2907 243.896 54.8587 243.896 54.368C243.896 53.9733 243.97 53.616 244.12 53.296C244.274 52.9707 244.488 52.696 244.76 52.472C245.032 52.2427 245.354 52.0667 245.728 51.944C246.106 51.8213 246.52 51.76 246.968 51.76C247.32 51.76 247.648 51.8 247.952 51.88C248.256 51.9547 248.533 52.0667 248.784 52.216H250.984ZM253.808 53.52C254.064 52.9653 254.379 52.5333 254.752 52.224C255.125 51.9093 255.581 51.752 256.12 51.752C256.291 51.752 256.453 51.7707 256.608 51.808C256.768 51.8453 256.909 51.904 257.032 51.984L256.928 53.048C256.896 53.1813 256.816 53.248 256.688 53.248C256.613 53.248 256.504 53.232 256.36 53.2C256.216 53.168 256.053 53.152 255.872 53.152C255.616 53.152 255.387 53.1893 255.184 53.264C254.987 53.3387 254.808 53.4507 254.648 53.6C254.493 53.744 254.352 53.9253 254.224 54.144C254.101 54.3573 253.989 54.6027 253.888 54.88V60H252.456V51.896H253.272C253.427 51.896 253.533 51.9253 253.592 51.984C253.651 52.0427 253.691 52.144 253.712 52.288L253.808 53.52ZM263.38 55.064C263.38 54.7333 263.332 54.432 263.236 54.16C263.145 53.8827 263.009 53.6453 262.828 53.448C262.652 53.2453 262.436 53.0907 262.18 52.984C261.924 52.872 261.633 52.816 261.308 52.816C260.625 52.816 260.084 53.016 259.684 53.416C259.289 53.8107 259.044 54.36 258.948 55.064H263.38ZM264.532 58.864C264.356 59.0773 264.145 59.264 263.9 59.424C263.655 59.5787 263.391 59.7067 263.108 59.808C262.831 59.9093 262.543 59.984 262.244 60.032C261.945 60.0853 261.649 60.112 261.356 60.112C260.796 60.112 260.279 60.0187 259.804 59.832C259.335 59.64 258.927 59.3627 258.58 59C258.239 58.632 257.972 58.1787 257.78 57.64C257.588 57.1013 257.492 56.4827 257.492 55.784C257.492 55.2187 257.577 54.6907 257.748 54.2C257.924 53.7093 258.175 53.2853 258.5 52.928C258.825 52.5653 259.223 52.2827 259.692 52.08C260.161 51.872 260.689 51.768 261.276 51.768C261.761 51.768 262.209 51.8507 262.62 52.016C263.036 52.176 263.393 52.4107 263.692 52.72C263.996 53.024 264.233 53.4027 264.404 53.856C264.575 54.304 264.66 54.816 264.66 55.392C264.66 55.616 264.636 55.7653 264.588 55.84C264.54 55.9147 264.449 55.952 264.316 55.952H258.9C258.916 56.464 258.985 56.9093 259.108 57.288C259.236 57.6667 259.412 57.984 259.636 58.24C259.86 58.4907 260.127 58.68 260.436 58.808C260.745 58.9307 261.092 58.992 261.476 58.992C261.833 58.992 262.14 58.952 262.396 58.872C262.657 58.7867 262.881 58.696 263.068 58.6C263.255 58.504 263.409 58.416 263.532 58.336C263.66 58.2507 263.769 58.208 263.86 58.208C263.977 58.208 264.068 58.2533 264.132 58.344L264.532 58.864ZM271.129 53.232C271.065 53.3493 270.967 53.408 270.833 53.408C270.753 53.408 270.663 53.3787 270.561 53.32C270.46 53.2613 270.335 53.1973 270.185 53.128C270.041 53.0533 269.868 52.9867 269.665 52.928C269.463 52.864 269.223 52.832 268.945 52.832C268.705 52.832 268.489 52.864 268.297 52.928C268.105 52.9867 267.94 53.0693 267.801 53.176C267.668 53.2827 267.564 53.408 267.489 53.552C267.42 53.6907 267.385 53.8427 267.385 54.008C267.385 54.216 267.444 54.3893 267.561 54.528C267.684 54.6667 267.844 54.7867 268.041 54.888C268.239 54.9893 268.463 55.08 268.713 55.16C268.964 55.2347 269.22 55.3173 269.481 55.408C269.748 55.4933 270.007 55.5893 270.257 55.696C270.508 55.8027 270.732 55.936 270.929 56.096C271.127 56.256 271.284 56.4533 271.401 56.688C271.524 56.9173 271.585 57.1947 271.585 57.52C271.585 57.8933 271.519 58.24 271.385 58.56C271.252 58.8747 271.055 59.1493 270.793 59.384C270.532 59.6133 270.212 59.7947 269.833 59.928C269.455 60.0613 269.017 60.128 268.521 60.128C267.956 60.128 267.444 60.0373 266.985 59.856C266.527 59.6693 266.137 59.432 265.817 59.144L266.153 58.6C266.196 58.5307 266.247 58.4773 266.305 58.44C266.364 58.4027 266.439 58.384 266.529 58.384C266.625 58.384 266.727 58.4213 266.833 58.496C266.94 58.5707 267.068 58.6533 267.217 58.744C267.372 58.8347 267.559 58.9173 267.777 58.992C267.996 59.0667 268.268 59.104 268.593 59.104C268.871 59.104 269.113 59.0693 269.321 59C269.529 58.9253 269.703 58.8267 269.841 58.704C269.98 58.5813 270.081 58.44 270.145 58.28C270.215 58.12 270.249 57.9493 270.249 57.768C270.249 57.544 270.188 57.36 270.065 57.216C269.948 57.0667 269.791 56.9413 269.593 56.84C269.396 56.7333 269.169 56.6427 268.913 56.568C268.663 56.488 268.404 56.4053 268.137 56.32C267.876 56.2347 267.617 56.1387 267.361 56.032C267.111 55.92 266.887 55.7813 266.689 55.616C266.492 55.4507 266.332 55.248 266.209 55.008C266.092 54.7627 266.033 54.4667 266.033 54.12C266.033 53.8107 266.097 53.5147 266.225 53.232C266.353 52.944 266.54 52.6933 266.785 52.48C267.031 52.2613 267.332 52.088 267.689 51.96C268.047 51.832 268.455 51.768 268.913 51.768C269.447 51.768 269.924 51.8533 270.345 52.024C270.772 52.1893 271.14 52.4187 271.449 52.712L271.129 53.232ZM278.051 53.232C277.987 53.3493 277.888 53.408 277.755 53.408C277.675 53.408 277.584 53.3787 277.483 53.32C277.382 53.2613 277.256 53.1973 277.107 53.128C276.963 53.0533 276.79 52.9867 276.587 52.928C276.384 52.864 276.144 52.832 275.867 52.832C275.627 52.832 275.411 52.864 275.219 52.928C275.027 52.9867 274.862 53.0693 274.723 53.176C274.59 53.2827 274.486 53.408 274.411 53.552C274.342 53.6907 274.307 53.8427 274.307 54.008C274.307 54.216 274.366 54.3893 274.483 54.528C274.606 54.6667 274.766 54.7867 274.963 54.888C275.16 54.9893 275.384 55.08 275.635 55.16C275.886 55.2347 276.142 55.3173 276.403 55.408C276.67 55.4933 276.928 55.5893 277.179 55.696C277.43 55.8027 277.654 55.936 277.851 56.096C278.048 56.256 278.206 56.4533 278.323 56.688C278.446 56.9173 278.507 57.1947 278.507 57.52C278.507 57.8933 278.44 58.24 278.307 58.56C278.174 58.8747 277.976 59.1493 277.715 59.384C277.454 59.6133 277.134 59.7947 276.755 59.928C276.376 60.0613 275.939 60.128 275.443 60.128C274.878 60.128 274.366 60.0373 273.907 59.856C273.448 59.6693 273.059 59.432 272.739 59.144L273.075 58.6C273.118 58.5307 273.168 58.4773 273.227 58.44C273.286 58.4027 273.36 58.384 273.451 58.384C273.547 58.384 273.648 58.4213 273.755 58.496C273.862 58.5707 273.99 58.6533 274.139 58.744C274.294 58.8347 274.48 58.9173 274.699 58.992C274.918 59.0667 275.19 59.104 275.515 59.104C275.792 59.104 276.035 59.0693 276.243 59C276.451 58.9253 276.624 58.8267 276.763 58.704C276.902 58.5813 277.003 58.44 277.067 58.28C277.136 58.12 277.171 57.9493 277.171 57.768C277.171 57.544 277.11 57.36 276.987 57.216C276.87 57.0667 276.712 56.9413 276.515 56.84C276.318 56.7333 276.091 56.6427 275.835 56.568C275.584 56.488 275.326 56.4053 275.059 56.32C274.798 56.2347 274.539 56.1387 274.283 56.032C274.032 55.92 273.808 55.7813 273.611 55.616C273.414 55.4507 273.254 55.248 273.131 55.008C273.014 54.7627 272.955 54.4667 272.955 54.12C272.955 53.8107 273.019 53.5147 273.147 53.232C273.275 52.944 273.462 52.6933 273.707 52.48C273.952 52.2613 274.254 52.088 274.611 51.96C274.968 51.832 275.376 51.768 275.835 51.768C276.368 51.768 276.846 51.8533 277.267 52.024C277.694 52.1893 278.062 52.4187 278.371 52.712L278.051 53.232ZM281.757 51.896V60H280.333V51.896H281.757ZM282.061 49.352C282.061 49.4907 282.032 49.6213 281.973 49.744C281.92 49.8613 281.845 49.968 281.749 50.064C281.658 50.1547 281.549 50.2267 281.421 50.28C281.298 50.3333 281.168 50.36 281.029 50.36C280.89 50.36 280.76 50.3333 280.637 50.28C280.52 50.2267 280.416 50.1547 280.325 50.064C280.234 49.968 280.162 49.8613 280.109 49.744C280.056 49.6213 280.029 49.4907 280.029 49.352C280.029 49.2133 280.056 49.0827 280.109 48.96C280.162 48.832 280.234 48.7227 280.325 48.632C280.416 48.536 280.52 48.4613 280.637 48.408C280.76 48.3547 280.89 48.328 281.029 48.328C281.168 48.328 281.298 48.3547 281.421 48.408C281.549 48.4613 281.658 48.536 281.749 48.632C281.845 48.7227 281.92 48.832 281.973 48.96C282.032 49.0827 282.061 49.2133 282.061 49.352ZM291.041 51.896L287.737 60H286.457L283.153 51.896H284.313C284.43 51.896 284.526 51.9253 284.601 51.984C284.675 52.0427 284.726 52.112 284.753 52.192L286.809 57.408C286.873 57.6053 286.929 57.7973 286.977 57.984C287.025 58.1707 287.07 58.3573 287.113 58.544C287.155 58.3573 287.201 58.1707 287.249 57.984C287.297 57.7973 287.355 57.6053 287.425 57.408L289.505 52.192C289.537 52.1067 289.59 52.0373 289.665 51.984C289.739 51.9253 289.827 51.896 289.929 51.896H291.041ZM297.552 55.064C297.552 54.7333 297.504 54.432 297.408 54.16C297.317 53.8827 297.181 53.6453 297 53.448C296.824 53.2453 296.608 53.0907 296.352 52.984C296.096 52.872 295.805 52.816 295.48 52.816C294.797 52.816 294.256 53.016 293.856 53.416C293.461 53.8107 293.216 54.36 293.12 55.064H297.552ZM298.704 58.864C298.528 59.0773 298.317 59.264 298.072 59.424C297.827 59.5787 297.563 59.7067 297.28 59.808C297.003 59.9093 296.715 59.984 296.416 60.032C296.117 60.0853 295.821 60.112 295.528 60.112C294.968 60.112 294.451 60.0187 293.976 59.832C293.507 59.64 293.099 59.3627 292.752 59C292.411 58.632 292.144 58.1787 291.952 57.64C291.76 57.1013 291.664 56.4827 291.664 55.784C291.664 55.2187 291.749 54.6907 291.92 54.2C292.096 53.7093 292.347 53.2853 292.672 52.928C292.997 52.5653 293.395 52.2827 293.864 52.08C294.333 51.872 294.861 51.768 295.448 51.768C295.933 51.768 296.381 51.8507 296.792 52.016C297.208 52.176 297.565 52.4107 297.864 52.72C298.168 53.024 298.405 53.4027 298.576 53.856C298.747 54.304 298.832 54.816 298.832 55.392C298.832 55.616 298.808 55.7653 298.76 55.84C298.712 55.9147 298.621 55.952 298.488 55.952H293.072C293.088 56.464 293.157 56.9093 293.28 57.288C293.408 57.6667 293.584 57.984 293.808 58.24C294.032 58.4907 294.299 58.68 294.608 58.808C294.917 58.9307 295.264 58.992 295.648 58.992C296.005 58.992 296.312 58.952 296.568 58.872C296.829 58.7867 297.053 58.696 297.24 58.6C297.427 58.504 297.581 58.416 297.704 58.336C297.832 58.2507 297.941 58.208 298.032 58.208C298.149 58.208 298.24 58.2533 298.304 58.344L298.704 58.864ZM315.523 51.896L312.899 60H311.771C311.632 60 311.536 59.9093 311.483 59.728L309.691 54.232C309.648 54.1093 309.613 53.9867 309.587 53.864C309.56 53.736 309.533 53.6107 309.507 53.488C309.48 53.6107 309.453 53.736 309.427 53.864C309.4 53.9867 309.365 54.112 309.323 54.24L307.499 59.728C307.451 59.9093 307.344 60 307.179 60H306.107L303.483 51.896H304.603C304.715 51.896 304.808 51.9253 304.883 51.984C304.963 52.0427 305.016 52.112 305.043 52.192L306.595 57.408C306.685 57.792 306.757 58.1547 306.811 58.496C306.859 58.32 306.907 58.1413 306.955 57.96C307.008 57.7787 307.064 57.5947 307.123 57.408L308.835 52.16C308.861 52.08 308.907 52.0133 308.971 51.96C309.04 51.9067 309.123 51.88 309.219 51.88H309.843C309.949 51.88 310.037 51.9067 310.107 51.96C310.176 52.0133 310.224 52.08 310.251 52.16L311.923 57.408C311.981 57.5947 312.035 57.7787 312.083 57.96C312.131 58.1413 312.176 58.32 312.219 58.496C312.245 58.32 312.277 58.144 312.315 57.968C312.357 57.7867 312.403 57.6 312.451 57.408L314.035 52.192C314.061 52.1067 314.112 52.0373 314.187 51.984C314.261 51.9253 314.349 51.896 314.451 51.896H315.523ZM322.224 55.064C322.224 54.7333 322.176 54.432 322.08 54.16C321.989 53.8827 321.853 53.6453 321.672 53.448C321.496 53.2453 321.28 53.0907 321.024 52.984C320.768 52.872 320.477 52.816 320.152 52.816C319.469 52.816 318.928 53.016 318.528 53.416C318.133 53.8107 317.888 54.36 317.792 55.064H322.224ZM323.376 58.864C323.2 59.0773 322.989 59.264 322.744 59.424C322.499 59.5787 322.235 59.7067 321.952 59.808C321.675 59.9093 321.387 59.984 321.088 60.032C320.789 60.0853 320.493 60.112 320.2 60.112C319.64 60.112 319.123 60.0187 318.648 59.832C318.179 59.64 317.771 59.3627 317.424 59C317.083 58.632 316.816 58.1787 316.624 57.64C316.432 57.1013 316.336 56.4827 316.336 55.784C316.336 55.2187 316.421 54.6907 316.592 54.2C316.768 53.7093 317.019 53.2853 317.344 52.928C317.669 52.5653 318.067 52.2827 318.536 52.08C319.005 51.872 319.533 51.768 320.12 51.768C320.605 51.768 321.053 51.8507 321.464 52.016C321.88 52.176 322.237 52.4107 322.536 52.72C322.84 53.024 323.077 53.4027 323.248 53.856C323.419 54.304 323.504 54.816 323.504 55.392C323.504 55.616 323.48 55.7653 323.432 55.84C323.384 55.9147 323.293 55.952 323.16 55.952H317.744C317.76 56.464 317.829 56.9093 317.952 57.288C318.08 57.6667 318.256 57.984 318.48 58.24C318.704 58.4907 318.971 58.68 319.28 58.808C319.589 58.9307 319.936 58.992 320.32 58.992C320.677 58.992 320.984 58.952 321.24 58.872C321.501 58.7867 321.725 58.696 321.912 58.6C322.099 58.504 322.253 58.416 322.376 58.336C322.504 58.2507 322.613 58.208 322.704 58.208C322.821 58.208 322.912 58.2533 322.976 58.344L323.376 58.864ZM326.685 58.048C326.946 58.4 327.232 58.648 327.541 58.792C327.856 58.936 328.2 59.008 328.573 59.008C329.336 59.008 329.92 58.7387 330.325 58.2C330.73 57.6613 330.933 56.8587 330.933 55.792C330.933 54.8 330.752 54.072 330.389 53.608C330.032 53.1387 329.52 52.904 328.853 52.904C328.389 52.904 327.984 53.0107 327.637 53.224C327.296 53.4373 326.978 53.7387 326.685 54.128V58.048ZM326.685 53.064C327.026 52.6693 327.41 52.3547 327.837 52.12C328.269 51.8853 328.765 51.768 329.325 51.768C329.8 51.768 330.226 51.8587 330.605 52.04C330.989 52.2213 331.314 52.4853 331.581 52.832C331.848 53.1733 332.05 53.5893 332.189 54.08C332.333 54.5707 332.405 55.1227 332.405 55.736C332.405 56.392 332.325 56.9893 332.165 57.528C332.005 58.0667 331.773 58.528 331.469 58.912C331.17 59.2907 330.805 59.5867 330.373 59.8C329.941 60.008 329.456 60.112 328.917 60.112C328.384 60.112 327.933 60.0133 327.565 59.816C327.202 59.6133 326.885 59.328 326.613 58.96L326.541 59.696C326.498 59.8987 326.376 60 326.173 60H325.253V48.216H326.685V53.064ZM342.692 56.352C342.036 56.3733 341.476 56.4267 341.012 56.512C340.553 56.592 340.177 56.6987 339.884 56.832C339.596 56.9653 339.385 57.1227 339.252 57.304C339.124 57.4853 339.06 57.688 339.06 57.912C339.06 58.1253 339.095 58.3093 339.164 58.464C339.233 58.6187 339.327 58.7467 339.444 58.848C339.567 58.944 339.708 59.016 339.868 59.064C340.033 59.1067 340.209 59.128 340.396 59.128C340.647 59.128 340.876 59.104 341.084 59.056C341.292 59.0027 341.487 58.928 341.668 58.832C341.855 58.736 342.031 58.6213 342.196 58.488C342.367 58.3547 342.532 58.2027 342.692 58.032V56.352ZM338.092 53.04C338.54 52.608 339.023 52.2853 339.54 52.072C340.057 51.8587 340.631 51.752 341.26 51.752C341.713 51.752 342.116 51.8267 342.468 51.976C342.82 52.1253 343.116 52.3333 343.356 52.6C343.596 52.8667 343.777 53.1893 343.9 53.568C344.023 53.9467 344.084 54.3627 344.084 54.816V60H343.452C343.313 60 343.207 59.9787 343.132 59.936C343.057 59.888 342.999 59.7973 342.956 59.664L342.796 58.896C342.583 59.0933 342.375 59.2693 342.172 59.424C341.969 59.5733 341.756 59.7013 341.532 59.808C341.308 59.9093 341.068 59.9867 340.812 60.04C340.561 60.0987 340.281 60.128 339.972 60.128C339.657 60.128 339.361 60.0853 339.084 60C338.807 59.9093 338.564 59.776 338.356 59.6C338.153 59.424 337.991 59.2027 337.868 58.936C337.751 58.664 337.692 58.344 337.692 57.976C337.692 57.656 337.78 57.3493 337.956 57.056C338.132 56.7573 338.417 56.4933 338.812 56.264C339.207 56.0347 339.721 55.848 340.356 55.704C340.991 55.5547 341.769 55.4693 342.692 55.448V54.816C342.692 54.1867 342.556 53.712 342.284 53.392C342.012 53.0667 341.615 52.904 341.092 52.904C340.74 52.904 340.444 52.9493 340.204 53.04C339.969 53.1253 339.764 53.224 339.588 53.336C339.417 53.4427 339.268 53.5413 339.14 53.632C339.017 53.7173 338.895 53.76 338.772 53.76C338.676 53.76 338.593 53.736 338.524 53.688C338.455 53.6347 338.396 53.5707 338.348 53.496L338.092 53.04ZM347.685 58.048C347.946 58.4 348.232 58.648 348.541 58.792C348.85 58.936 349.197 59.008 349.581 59.008C350.338 59.008 350.92 58.7387 351.325 58.2C351.73 57.6613 351.933 56.8933 351.933 55.896C351.933 55.368 351.885 54.9147 351.789 54.536C351.698 54.1573 351.565 53.848 351.389 53.608C351.213 53.3627 350.997 53.184 350.741 53.072C350.485 52.96 350.194 52.904 349.869 52.904C349.405 52.904 348.997 53.0107 348.645 53.224C348.298 53.4373 347.978 53.7387 347.685 54.128V58.048ZM347.613 53.152C347.954 52.7307 348.349 52.392 348.797 52.136C349.245 51.88 349.757 51.752 350.333 51.752C350.802 51.752 351.226 51.8427 351.605 52.024C351.984 52.2 352.306 52.464 352.573 52.816C352.84 53.1627 353.045 53.5947 353.189 54.112C353.333 54.6293 353.405 55.224 353.405 55.896C353.405 56.4933 353.325 57.0507 353.165 57.568C353.005 58.08 352.773 58.5253 352.469 58.904C352.17 59.2773 351.802 59.5733 351.365 59.792C350.933 60.0053 350.445 60.112 349.901 60.112C349.405 60.112 348.978 60.0293 348.621 59.864C348.269 59.6933 347.957 59.4587 347.685 59.16V62.744H346.253V51.896H347.109C347.312 51.896 347.437 51.9947 347.485 52.192L347.613 53.152ZM356.654 58.048C356.915 58.4 357.2 58.648 357.51 58.792C357.819 58.936 358.166 59.008 358.55 59.008C359.307 59.008 359.888 58.7387 360.294 58.2C360.699 57.6613 360.902 56.8933 360.902 55.896C360.902 55.368 360.854 54.9147 360.758 54.536C360.667 54.1573 360.534 53.848 360.358 53.608C360.182 53.3627 359.966 53.184 359.71 53.072C359.454 52.96 359.163 52.904 358.838 52.904C358.374 52.904 357.966 53.0107 357.614 53.224C357.267 53.4373 356.947 53.7387 356.654 54.128V58.048ZM356.582 53.152C356.923 52.7307 357.318 52.392 357.766 52.136C358.214 51.88 358.726 51.752 359.302 51.752C359.771 51.752 360.195 51.8427 360.574 52.024C360.952 52.2 361.275 52.464 361.542 52.816C361.808 53.1627 362.014 53.5947 362.158 54.112C362.302 54.6293 362.374 55.224 362.374 55.896C362.374 56.4933 362.294 57.0507 362.134 57.568C361.974 58.08 361.742 58.5253 361.438 58.904C361.139 59.2773 360.771 59.5733 360.334 59.792C359.902 60.0053 359.414 60.112 358.87 60.112C358.374 60.112 357.947 60.0293 357.59 59.864C357.238 59.6933 356.926 59.4587 356.654 59.16V62.744H355.222V51.896H356.078C356.28 51.896 356.406 51.9947 356.454 52.192L356.582 53.152Z" fill="#F1F5F9"/>
<defs>
<filter id="filter0_dd_112_2377" x="11" y="12" width="58" height="59" filterUnits="userSpaceOnUse" color-interpolation-filters="sRGB">
<feFlood flood-opacity="0" result="BackgroundImageFix"/>
<feColorMatrix in="SourceAlpha" type="matrix" values="0 0 0 0 0 0 0 0 0 0 0 0 0 0 0 0 0 0 127 0" result="hardAlpha"/>
<feOffset dy="2"/>
<feGaussianBlur stdDeviation="2.5"/>
<feColorMatrix type="matrix" values="0 0 0 0 0 0 0 0 0 0 0 0 0 0 0 0 0 0 0.14 0"/>
<feBlend mode="normal" in2="BackgroundImageFix" result="effect1_dropShadow_112_2377"/>
<feColorMatrix in="SourceAlpha" type="matrix" values="0 0 0 0 0 0 0 0 0 0 0 0 0 0 0 0 0 0 127 0" result="hardAlpha"/>
<feOffset dy="1"/>
<feGaussianBlur stdDeviation="2.5"/>
<feColorMatrix type="matrix" values="0 0 0 0 0 0 0 0 0 0 0 0 0 0 0 0 0 0 0.12 0"/>
<feBlend mode="normal" in2="effect1_dropShadow_112_2377" result="effect2_dropShadow_112_2377"/>
<feBlend mode="normal" in="SourceGraphic" in2="effect2_dropShadow_112_2377" result="shape"/>
</filter>
<radialGradient id="paint0_radial_112_2377" cx="0" cy="0" r="1" gradientUnits="userSpaceOnUse" gradientTransform="translate(40 40) rotate(90) scale(24)">
<stop stop-color="#5490EB"/>
<stop offset="1" stop-color="#0848A9"/>
</radialGradient>
</defs>
</svg>
