<svg width="107" height="82" viewBox="0 0 107 82" fill="none" xmlns="http://www.w3.org/2000/svg">
<g filter="url(#filter0_dd_120_2378)">
<rect x="5" y="23" width="97" height="36" rx="8" fill="url(#paint0_linear_120_2378)"/>
<path d="M28.133 44.11V46H21.987V35.801H24.353V44.11H28.133ZM31.3095 38.741V46H29.1395V38.741H31.3095ZM31.5335 36.753C31.5335 36.9257 31.4985 37.089 31.4285 37.243C31.3585 37.3923 31.2628 37.5253 31.1415 37.642C31.0201 37.754 30.8778 37.845 30.7145 37.915C30.5558 37.9803 30.3855 38.013 30.2035 38.013C30.0261 38.013 29.8605 37.9803 29.7065 37.915C29.5525 37.845 29.4148 37.754 29.2935 37.642C29.1768 37.5253 29.0835 37.3923 29.0135 37.243C28.9481 37.089 28.9155 36.9257 28.9155 36.753C28.9155 36.5757 28.9481 36.41 29.0135 36.256C29.0835 36.102 29.1768 35.9667 29.2935 35.85C29.4148 35.7333 29.5525 35.6423 29.7065 35.577C29.8605 35.5117 30.0261 35.479 30.2035 35.479C30.3855 35.479 30.5558 35.5117 30.7145 35.577C30.8778 35.6423 31.0201 35.7333 31.1415 35.85C31.2628 35.9667 31.3585 36.102 31.4285 36.256C31.4985 36.41 31.5335 36.5757 31.5335 36.753ZM39.6619 38.741L36.8479 46H34.8739L32.0599 38.741H33.8659C34.0199 38.741 34.1482 38.7783 34.2509 38.853C34.3582 38.923 34.4306 39.0117 34.4679 39.119L35.4759 42.374C35.5646 42.64 35.6416 42.899 35.7069 43.151C35.7769 43.403 35.8376 43.655 35.8889 43.907C35.9916 43.403 36.1339 42.892 36.3159 42.374L37.3659 39.119C37.4032 39.0117 37.4732 38.923 37.5759 38.853C37.6786 38.7783 37.7999 38.741 37.9399 38.741H39.6619ZM44.6387 41.499C44.6387 41.3263 44.6153 41.1583 44.5687 40.995C44.5267 40.8317 44.4543 40.687 44.3517 40.561C44.2537 40.4303 44.123 40.3253 43.9597 40.246C43.7963 40.1667 43.598 40.127 43.3647 40.127C42.954 40.127 42.632 40.246 42.3987 40.484C42.1653 40.7173 42.0113 41.0557 41.9367 41.499H44.6387ZM41.9087 42.759C41.9787 43.3657 42.163 43.8067 42.4617 44.082C42.7603 44.3527 43.1453 44.488 43.6167 44.488C43.8687 44.488 44.0857 44.4577 44.2677 44.397C44.4497 44.3363 44.6107 44.2687 44.7507 44.194C44.8953 44.1193 45.026 44.0517 45.1427 43.991C45.264 43.9303 45.39 43.9 45.5207 43.9C45.6933 43.9 45.824 43.963 45.9127 44.089L46.5427 44.866C46.3187 45.1227 46.076 45.3327 45.8147 45.496C45.558 45.6547 45.292 45.7807 45.0167 45.874C44.746 45.9627 44.473 46.0233 44.1977 46.056C43.927 46.0933 43.668 46.112 43.4207 46.112C42.912 46.112 42.4337 46.0303 41.9857 45.867C41.5423 45.699 41.1527 45.4517 40.8167 45.125C40.4853 44.7983 40.2217 44.3923 40.0257 43.907C39.8343 43.4217 39.7387 42.857 39.7387 42.213C39.7387 41.7277 39.8203 41.268 39.9837 40.834C40.1517 40.4 40.3897 40.0197 40.6977 39.693C41.0103 39.3663 41.386 39.1073 41.8247 38.916C42.268 38.7247 42.7673 38.629 43.3227 38.629C43.8033 38.629 44.242 38.7037 44.6387 38.853C45.04 39.0023 45.383 39.2193 45.6677 39.504C45.957 39.7887 46.181 40.1387 46.3397 40.554C46.503 40.9647 46.5847 41.4313 46.5847 41.954C46.5847 42.1173 46.5777 42.2503 46.5637 42.353C46.5497 42.4557 46.524 42.5373 46.4867 42.598C46.4493 42.6587 46.398 42.7007 46.3327 42.724C46.272 42.7473 46.1927 42.759 46.0947 42.759H41.9087ZM55.3138 40.687C55.1504 40.505 54.9731 40.379 54.7818 40.309C54.5904 40.2343 54.3898 40.197 54.1798 40.197C53.9791 40.197 53.7948 40.2367 53.6268 40.316C53.4588 40.3953 53.3118 40.5237 53.1858 40.701C53.0644 40.8737 52.9688 41.1 52.8988 41.38C52.8288 41.66 52.7938 41.9983 52.7938 42.395C52.7938 42.7777 52.8218 43.0997 52.8778 43.361C52.9338 43.6223 53.0108 43.8347 53.1088 43.998C53.2114 44.1567 53.3328 44.271 53.4728 44.341C53.6128 44.411 53.7691 44.446 53.9418 44.446C54.1004 44.446 54.2428 44.432 54.3688 44.404C54.4994 44.3713 54.6184 44.327 54.7258 44.271C54.8331 44.215 54.9334 44.145 55.0268 44.061C55.1248 43.9723 55.2204 43.872 55.3138 43.76V40.687ZM57.4838 35.521V46H56.1398C55.8691 46 55.6918 45.8787 55.6078 45.636L55.4398 45.083C55.2951 45.237 55.1434 45.377 54.9848 45.503C54.8261 45.629 54.6534 45.7387 54.4668 45.832C54.2848 45.9207 54.0864 45.9883 53.8718 46.035C53.6618 46.0863 53.4331 46.112 53.1858 46.112C52.8078 46.112 52.4578 46.028 52.1358 45.86C51.8138 45.692 51.5361 45.4493 51.3028 45.132C51.0694 44.8147 50.8851 44.4273 50.7498 43.97C50.6191 43.508 50.5538 42.983 50.5538 42.395C50.5538 41.8537 50.6284 41.352 50.7778 40.89C50.9271 40.4233 51.1371 40.022 51.4078 39.686C51.6831 39.3453 52.0121 39.0793 52.3948 38.888C52.7774 38.6967 53.1998 38.601 53.6618 38.601C54.0398 38.601 54.3571 38.6547 54.6138 38.762C54.8704 38.8693 55.1038 39.014 55.3138 39.196V35.521H57.4838ZM63.4648 41.499C63.4648 41.3263 63.4415 41.1583 63.3948 40.995C63.3528 40.8317 63.2805 40.687 63.1778 40.561C63.0798 40.4303 62.9492 40.3253 62.7858 40.246C62.6225 40.1667 62.4242 40.127 62.1908 40.127C61.7802 40.127 61.4582 40.246 61.2248 40.484C60.9915 40.7173 60.8375 41.0557 60.7628 41.499H63.4648ZM60.7348 42.759C60.8048 43.3657 60.9892 43.8067 61.2878 44.082C61.5865 44.3527 61.9715 44.488 62.4428 44.488C62.6948 44.488 62.9118 44.4577 63.0938 44.397C63.2758 44.3363 63.4368 44.2687 63.5768 44.194C63.7215 44.1193 63.8522 44.0517 63.9688 43.991C64.0902 43.9303 64.2162 43.9 64.3468 43.9C64.5195 43.9 64.6502 43.963 64.7388 44.089L65.3688 44.866C65.1448 45.1227 64.9022 45.3327 64.6408 45.496C64.3842 45.6547 64.1182 45.7807 63.8428 45.874C63.5722 45.9627 63.2992 46.0233 63.0238 46.056C62.7532 46.0933 62.4942 46.112 62.2468 46.112C61.7382 46.112 61.2598 46.0303 60.8118 45.867C60.3685 45.699 59.9788 45.4517 59.6428 45.125C59.3115 44.7983 59.0478 44.3923 58.8518 43.907C58.6605 43.4217 58.5648 42.857 58.5648 42.213C58.5648 41.7277 58.6465 41.268 58.8098 40.834C58.9778 40.4 59.2158 40.0197 59.5238 39.693C59.8365 39.3663 60.2122 39.1073 60.6508 38.916C61.0942 38.7247 61.5935 38.629 62.1488 38.629C62.6295 38.629 63.0682 38.7037 63.4648 38.853C63.8662 39.0023 64.2092 39.2193 64.4938 39.504C64.7832 39.7887 65.0072 40.1387 65.1658 40.554C65.3292 40.9647 65.4108 41.4313 65.4108 41.954C65.4108 42.1173 65.4038 42.2503 65.3898 42.353C65.3758 42.4557 65.3502 42.5373 65.3128 42.598C65.2755 42.6587 65.2242 42.7007 65.1588 42.724C65.0982 42.7473 65.0188 42.759 64.9208 42.759H60.7348ZM66.4967 46V38.741H67.8407C68.1114 38.741 68.2887 38.8623 68.3727 39.105L68.4917 39.497C68.6131 39.371 68.7391 39.2567 68.8697 39.154C69.0004 39.0467 69.1404 38.9557 69.2897 38.881C69.4437 38.8017 69.6071 38.741 69.7797 38.699C69.9571 38.6523 70.1507 38.629 70.3607 38.629C70.7994 38.629 71.1611 38.7433 71.4457 38.972C71.7351 39.196 71.9544 39.497 72.1037 39.875C72.2251 39.651 72.3721 39.4597 72.5447 39.301C72.7221 39.1423 72.9111 39.014 73.1117 38.916C73.3171 38.818 73.5317 38.7457 73.7557 38.699C73.9844 38.6523 74.2107 38.629 74.4347 38.629C74.8501 38.629 75.2187 38.692 75.5407 38.818C75.8627 38.9393 76.1311 39.119 76.3457 39.357C76.5651 39.5903 76.7307 39.8797 76.8427 40.225C76.9547 40.5657 77.0107 40.953 77.0107 41.387V46H74.8407V41.387C74.8407 40.6357 74.5187 40.26 73.8747 40.26C73.5807 40.26 73.3357 40.358 73.1397 40.554C72.9484 40.7453 72.8527 41.023 72.8527 41.387V46H70.6827V41.387C70.6827 40.9717 70.6011 40.68 70.4377 40.512C70.2744 40.344 70.0341 40.26 69.7167 40.26C69.5207 40.26 69.3341 40.3043 69.1567 40.393C68.9841 40.4817 68.8207 40.6007 68.6667 40.75V46H66.4967ZM81.7509 38.629C82.3016 38.629 82.8033 38.7153 83.2559 38.888C83.7086 39.0607 84.0959 39.308 84.4179 39.63C84.7446 39.952 84.9966 40.344 85.1739 40.806C85.3559 41.2633 85.4469 41.779 85.4469 42.353C85.4469 42.9317 85.3559 43.4543 85.1739 43.921C84.9966 44.383 84.7446 44.7773 84.4179 45.104C84.0959 45.426 83.7086 45.6757 83.2559 45.853C82.8033 46.0257 82.3016 46.112 81.7509 46.112C81.1956 46.112 80.6893 46.0257 80.2319 45.853C79.7793 45.6757 79.3873 45.426 79.0559 45.104C78.7293 44.7773 78.4749 44.383 78.2929 43.921C78.1156 43.4543 78.0269 42.9317 78.0269 42.353C78.0269 41.779 78.1156 41.2633 78.2929 40.806C78.4749 40.344 78.7293 39.952 79.0559 39.63C79.3873 39.308 79.7793 39.0607 80.2319 38.888C80.6893 38.7153 81.1956 38.629 81.7509 38.629ZM81.7509 44.502C82.2503 44.502 82.6166 44.327 82.8499 43.977C83.0879 43.6223 83.2069 43.0857 83.2069 42.367C83.2069 41.6483 83.0879 41.114 82.8499 40.764C82.6166 40.414 82.2503 40.239 81.7509 40.239C81.2376 40.239 80.8619 40.414 80.6239 40.764C80.3859 41.114 80.2669 41.6483 80.2669 42.367C80.2669 43.0857 80.3859 43.6223 80.6239 43.977C80.8619 44.327 81.2376 44.502 81.7509 44.502Z" fill="#F1F5F9"/>
</g>
<defs>
<filter id="filter0_dd_120_2378" x="0" y="19" width="107" height="47" filterUnits="userSpaceOnUse" color-interpolation-filters="sRGB">
<feFlood flood-opacity="0" result="BackgroundImageFix"/>
<feColorMatrix in="SourceAlpha" type="matrix" values="0 0 0 0 0 0 0 0 0 0 0 0 0 0 0 0 0 0 127 0" result="hardAlpha"/>
<feOffset dy="2"/>
<feGaussianBlur stdDeviation="2.5"/>
<feColorMatrix type="matrix" values="0 0 0 0 0 0 0 0 0 0 0 0 0 0 0 0 0 0 0.14 0"/>
<feBlend mode="normal" in2="BackgroundImageFix" result="effect1_dropShadow_120_2378"/>
<feColorMatrix in="SourceAlpha" type="matrix" values="0 0 0 0 0 0 0 0 0 0 0 0 0 0 0 0 0 0 127 0" result="hardAlpha"/>
<feOffset dy="1"/>
<feGaussianBlur stdDeviation="2.5"/>
<feColorMatrix type="matrix" values="0 0 0 0 0 0 0 0 0 0 0 0 0 0 0 0 0 0 0.12 0"/>
<feBlend mode="normal" in2="effect1_dropShadow_120_2378" result="effect2_dropShadow_120_2378"/>
<feBlend mode="normal" in="SourceGraphic" in2="effect2_dropShadow_120_2378" result="shape"/>
</filter>
<linearGradient id="paint0_linear_120_2378" x1="5.86608" y1="23" x2="29.3527" y2="86.2833" gradientUnits="userSpaceOnUse">
<stop stop-color="#8B5CF6"/>
<stop offset="1" stop-color="#1956B3"/>
<stop offset="1" stop-color="#1D4ED8"/>
</linearGradient>
</defs>
</svg>
