<svg width="90" height="82" viewBox="0 0 90 82" fill="none" xmlns="http://www.w3.org/2000/svg">
<g filter="url(#filter0_dd_120_2379)">
<rect x="5" y="23" width="80" height="36" rx="8" fill="#F1F5F9"/>
<path d="M26.243 44.131C26.5603 44.131 26.8427 44.0797 27.09 43.977C27.342 43.8697 27.5543 43.718 27.727 43.522C27.8997 43.326 28.0303 43.088 28.119 42.808C28.2123 42.5233 28.259 42.2013 28.259 41.842V35.801H30.625V41.842C30.625 42.4673 30.5223 43.0413 30.317 43.564C30.1163 44.0867 29.827 44.537 29.449 44.915C29.071 45.293 28.6113 45.587 28.07 45.797C27.5287 46.007 26.9197 46.112 26.243 46.112C25.5617 46.112 24.9503 46.007 24.409 45.797C23.8677 45.587 23.408 45.293 23.03 44.915C22.652 44.537 22.3627 44.0867 22.162 43.564C21.9613 43.0413 21.861 42.4673 21.861 41.842V35.801H24.227V41.835C24.227 42.1943 24.2713 42.5163 24.36 42.801C24.4533 43.081 24.5863 43.3213 24.759 43.522C24.9317 43.718 25.1417 43.8697 25.389 43.977C25.641 44.0797 25.9257 44.131 26.243 44.131ZM34.1452 44.026C34.3086 44.2033 34.4859 44.3293 34.6772 44.404C34.8686 44.4787 35.0692 44.516 35.2792 44.516C35.4799 44.516 35.6642 44.4763 35.8322 44.397C36.0002 44.3177 36.1449 44.1917 36.2662 44.019C36.3922 43.8417 36.4902 43.613 36.5602 43.333C36.6302 43.053 36.6652 42.7123 36.6652 42.311C36.6652 41.9283 36.6372 41.6063 36.5812 41.345C36.5252 41.0837 36.4459 40.8737 36.3432 40.715C36.2452 40.5517 36.1262 40.435 35.9862 40.365C35.8462 40.295 35.6899 40.26 35.5172 40.26C35.1999 40.26 34.9386 40.3183 34.7332 40.435C34.5279 40.5517 34.3319 40.722 34.1452 40.946V44.026ZM34.0122 39.637C34.2969 39.3337 34.6189 39.0863 34.9782 38.895C35.3422 38.699 35.7739 38.601 36.2732 38.601C36.6512 38.601 37.0012 38.685 37.3232 38.853C37.6452 39.021 37.9229 39.2637 38.1562 39.581C38.3896 39.8983 38.5716 40.288 38.7022 40.75C38.8376 41.2073 38.9052 41.7277 38.9052 42.311C38.9052 42.857 38.8282 43.361 38.6742 43.823C38.5249 44.285 38.3126 44.6863 38.0372 45.027C37.7666 45.3677 37.4399 45.6337 37.0572 45.825C36.6792 46.0163 36.2592 46.112 35.7972 46.112C35.4192 46.112 35.1019 46.0583 34.8452 45.951C34.5886 45.8437 34.3552 45.699 34.1452 45.517V48.303H31.9752V38.741H33.3192C33.5899 38.741 33.7672 38.8623 33.8512 39.105L34.0122 39.637ZM47.7656 46H45.5956V40.239H42.5576V43.844C42.5576 44.012 42.5973 44.152 42.6766 44.264C42.7606 44.3713 42.8796 44.425 43.0336 44.425C43.1129 44.425 43.1783 44.418 43.2296 44.404C43.2856 44.3853 43.3323 44.3667 43.3696 44.348C43.4116 44.3247 43.4489 44.306 43.4816 44.292C43.5189 44.2733 43.5609 44.264 43.6076 44.264C43.6729 44.264 43.7243 44.2803 43.7616 44.313C43.8036 44.341 43.8456 44.3877 43.8876 44.453L44.5456 45.482C44.2656 45.692 43.9506 45.8507 43.6006 45.958C43.2506 46.0607 42.8889 46.112 42.5156 46.112C42.1703 46.112 41.8646 46.063 41.5986 45.965C41.3373 45.8623 41.1156 45.72 40.9336 45.538C40.7563 45.3513 40.6209 45.1273 40.5276 44.866C40.4343 44.6047 40.3876 44.313 40.3876 43.991V40.239H39.7716C39.6596 40.239 39.5639 40.204 39.4846 40.134C39.4053 40.0593 39.3656 39.952 39.3656 39.812V38.965L40.5206 38.734L40.9476 36.97C41.0036 36.746 41.1623 36.634 41.4236 36.634H42.5576V38.755H47.7656V46ZM48.0666 36.746C48.0666 36.9187 48.0316 37.082 47.9616 37.236C47.8916 37.39 47.7959 37.5253 47.6746 37.642C47.5533 37.754 47.4109 37.8427 47.2476 37.908C47.0889 37.9733 46.9186 38.006 46.7366 38.006C46.5593 38.006 46.3936 37.9733 46.2396 37.908C46.0856 37.8427 45.9479 37.754 45.8266 37.642C45.7099 37.5253 45.6166 37.39 45.5466 37.236C45.4813 37.082 45.4486 36.9187 45.4486 36.746C45.4486 36.5733 45.4813 36.41 45.5466 36.256C45.6166 36.0973 45.7099 35.962 45.8266 35.85C45.9479 35.7333 46.0856 35.6423 46.2396 35.577C46.3936 35.507 46.5593 35.472 46.7366 35.472C46.9186 35.472 47.0889 35.507 47.2476 35.577C47.4109 35.6423 47.5533 35.7333 47.6746 35.85C47.7959 35.962 47.8916 36.0973 47.9616 36.256C48.0316 36.41 48.0666 36.5733 48.0666 36.746ZM49.2838 46V38.741H50.6278C50.8985 38.741 51.0758 38.8623 51.1598 39.105L51.2788 39.497C51.4002 39.371 51.5262 39.2567 51.6568 39.154C51.7875 39.0467 51.9275 38.9557 52.0768 38.881C52.2308 38.8017 52.3942 38.741 52.5668 38.699C52.7442 38.6523 52.9378 38.629 53.1478 38.629C53.5865 38.629 53.9482 38.7433 54.2328 38.972C54.5222 39.196 54.7415 39.497 54.8908 39.875C55.0122 39.651 55.1592 39.4597 55.3318 39.301C55.5092 39.1423 55.6982 39.014 55.8988 38.916C56.1042 38.818 56.3188 38.7457 56.5428 38.699C56.7715 38.6523 56.9978 38.629 57.2218 38.629C57.6372 38.629 58.0058 38.692 58.3278 38.818C58.6498 38.9393 58.9182 39.119 59.1328 39.357C59.3522 39.5903 59.5178 39.8797 59.6298 40.225C59.7418 40.5657 59.7978 40.953 59.7978 41.387V46H57.6278V41.387C57.6278 40.6357 57.3058 40.26 56.6618 40.26C56.3678 40.26 56.1228 40.358 55.9268 40.554C55.7355 40.7453 55.6398 41.023 55.6398 41.387V46H53.4698V41.387C53.4698 40.9717 53.3882 40.68 53.2248 40.512C53.0615 40.344 52.8212 40.26 52.5038 40.26C52.3078 40.26 52.1212 40.3043 51.9438 40.393C51.7712 40.4817 51.6078 40.6007 51.4538 40.75V46H49.2838ZM65.707 41.499C65.707 41.3263 65.6837 41.1583 65.637 40.995C65.595 40.8317 65.5227 40.687 65.42 40.561C65.322 40.4303 65.1914 40.3253 65.028 40.246C64.8647 40.1667 64.6664 40.127 64.433 40.127C64.0224 40.127 63.7004 40.246 63.467 40.484C63.2337 40.7173 63.0797 41.0557 63.005 41.499H65.707ZM62.977 42.759C63.047 43.3657 63.2314 43.8067 63.53 44.082C63.8287 44.3527 64.2137 44.488 64.685 44.488C64.937 44.488 65.154 44.4577 65.336 44.397C65.518 44.3363 65.679 44.2687 65.819 44.194C65.9637 44.1193 66.0944 44.0517 66.211 43.991C66.3324 43.9303 66.4584 43.9 66.589 43.9C66.7617 43.9 66.8924 43.963 66.981 44.089L67.611 44.866C67.387 45.1227 67.1444 45.3327 66.883 45.496C66.6264 45.6547 66.3604 45.7807 66.085 45.874C65.8144 45.9627 65.5414 46.0233 65.266 46.056C64.9954 46.0933 64.7364 46.112 64.489 46.112C63.9804 46.112 63.502 46.0303 63.054 45.867C62.6107 45.699 62.221 45.4517 61.885 45.125C61.5537 44.7983 61.29 44.3923 61.094 43.907C60.9027 43.4217 60.807 42.857 60.807 42.213C60.807 41.7277 60.8887 41.268 61.052 40.834C61.22 40.4 61.458 40.0197 61.766 39.693C62.0787 39.3663 62.4544 39.1073 62.893 38.916C63.3364 38.7247 63.8357 38.629 64.391 38.629C64.8717 38.629 65.3104 38.7037 65.707 38.853C66.1084 39.0023 66.4514 39.2193 66.736 39.504C67.0254 39.7887 67.2494 40.1387 67.408 40.554C67.5714 40.9647 67.653 41.4313 67.653 41.954C67.653 42.1173 67.646 42.2503 67.632 42.353C67.618 42.4557 67.5924 42.5373 67.555 42.598C67.5177 42.6587 67.4664 42.7007 67.401 42.724C67.3404 42.7473 67.261 42.759 67.163 42.759H62.977Z" fill="#6366F1"/>
</g>
<defs>
<filter id="filter0_dd_120_2379" x="0" y="19" width="90" height="47" filterUnits="userSpaceOnUse" color-interpolation-filters="sRGB">
<feFlood flood-opacity="0" result="BackgroundImageFix"/>
<feColorMatrix in="SourceAlpha" type="matrix" values="0 0 0 0 0 0 0 0 0 0 0 0 0 0 0 0 0 0 127 0" result="hardAlpha"/>
<feOffset dy="2"/>
<feGaussianBlur stdDeviation="2.5"/>
<feColorMatrix type="matrix" values="0 0 0 0 0 0 0 0 0 0 0 0 0 0 0 0 0 0 0.14 0"/>
<feBlend mode="normal" in2="BackgroundImageFix" result="effect1_dropShadow_120_2379"/>
<feColorMatrix in="SourceAlpha" type="matrix" values="0 0 0 0 0 0 0 0 0 0 0 0 0 0 0 0 0 0 127 0" result="hardAlpha"/>
<feOffset dy="1"/>
<feGaussianBlur stdDeviation="2.5"/>
<feColorMatrix type="matrix" values="0 0 0 0 0 0 0 0 0 0 0 0 0 0 0 0 0 0 0.12 0"/>
<feBlend mode="normal" in2="effect1_dropShadow_120_2379" result="effect2_dropShadow_120_2379"/>
<feBlend mode="normal" in="SourceGraphic" in2="effect2_dropShadow_120_2379" result="shape"/>
</filter>
</defs>
</svg>
