<svg width="48" height="48" viewBox="0 0 48 48" fill="none" xmlns="http://www.w3.org/2000/svg">
<rect width="48" height="48" fill="url(#paint0_radial_323_2408)"/>
<path d="M24.0001 23.9999C24.7365 23.9999 25.3334 23.403 25.3334 22.6666C25.3334 21.9302 24.7365 21.3333 24.0001 21.3333C23.2637 21.3333 22.6667 21.9302 22.6667 22.6666C22.6667 23.403 23.2637 23.9999 24.0001 23.9999Z" stroke="#E1F5FA" stroke-width="2.66667" stroke-linecap="round" stroke-linejoin="round"/>
<path d="M30.7067 32.6133C32.8399 31.1746 34.4542 29.0883 35.3114 26.6622C36.1686 24.2361 36.2232 21.5987 35.4673 19.1392C34.7114 16.6797 33.1849 14.5282 31.1131 13.0023C29.0413 11.4765 26.534 10.6569 23.9609 10.6646C21.3878 10.6723 18.8854 11.5069 16.8228 13.0451C14.7602 14.5834 13.2466 16.7439 12.5054 19.2079C11.7643 21.6719 11.8347 24.3089 12.7064 26.7298C13.5781 29.1508 15.2049 31.2274 17.3467 32.6533" stroke="#E1F5FA" stroke-width="2.66667" stroke-linecap="round" stroke-linejoin="round"/>
<path d="M29.4132 26.5466C30.1371 25.539 30.5655 24.3494 30.6501 23.1116C30.7347 21.8739 30.4723 20.637 29.8923 19.5403C29.3123 18.4435 28.4377 17.5304 27.367 16.9036C26.2963 16.2768 25.072 15.9612 23.8317 15.9923C22.5914 16.0235 21.3844 16.4001 20.3465 17.0798C19.3086 17.7595 18.481 18.7153 17.9567 19.8398C17.4325 20.9643 17.2324 22.2127 17.379 23.4447C17.5256 24.6766 18.0131 25.8433 18.7866 26.8133" stroke="#E1F5FA" stroke-width="2.66667" stroke-linecap="round" stroke-linejoin="round"/>
<path d="M22.8134 30.6667C22.7877 30.496 22.7992 30.3217 22.847 30.1558C22.8949 29.9899 22.978 29.8363 23.0906 29.7054C23.2033 29.5746 23.3429 29.4696 23.4998 29.3976C23.6568 29.3256 23.8274 29.2883 24 29.2883C24.1727 29.2883 24.3433 29.3256 24.5003 29.3976C24.6572 29.4696 24.7968 29.5746 24.9095 29.7054C25.0221 29.8363 25.1052 29.9899 25.1531 30.1558C25.2009 30.3217 25.2124 30.496 25.1867 30.6667L24.4934 36.8934C24.4934 37.0242 24.4414 37.1497 24.3489 37.2422C24.2564 37.3347 24.1309 37.3867 24 37.3867C23.8692 37.3867 23.7437 37.3347 23.6512 37.2422C23.5587 37.1497 23.5067 37.0242 23.5067 36.8934L22.8134 30.6534V30.6667Z" stroke="#E1F5FA" stroke-width="2.66667" stroke-linecap="round" stroke-linejoin="round"/>
<defs>
<radialGradient id="paint0_radial_323_2408" cx="0" cy="0" r="1" gradientUnits="userSpaceOnUse" gradientTransform="translate(24 24) rotate(90) scale(24)">
<stop stop-color="#5490EB"/>
<stop offset="1" stop-color="#0848A9"/>
</radialGradient>
</defs>
</svg>
